<svg id="Ebene_1" data-name="Ebene 1" xmlns="http://www.w3.org/2000/svg" viewBox="0 0 200 80">
  <defs>
    <style>
      .cls-1 {
        fill: #4d4d4c;
      }
    </style>
  </defs>
  <g>
    <path class="cls-1" d="M17.21,36.08c0,1-.54,2.78-3.36,2.78-.37,0-1.56-.16-2.37-.16a.13.13,0,0,1-.1-.1c0-.21-.48-2-.48-2.22s.29-.13.38-.13c.49,0,.61,2.08,2.59,2.08a1.75,1.75,0,0,0,1.87-1.83c0-2.15-4.61-1.46-4.61-4.37a2.89,2.89,0,0,1,3.13-2.79,16.33,16.33,0,0,1,2.23.19c.27.06.3.45.3.57.05.84.24,1.38.24,1.65s-.13.16-.24.16-.3,0-.41-.29a2.42,2.42,0,0,0-2.14-1.75,1.49,1.49,0,0,0-1.65,1.54,1.58,1.58,0,0,0,1,1.38c2.16,1,3.65,1,3.65,3.29"/>
    <path class="cls-1" d="M24.07,32.42c.41,0,.7-.12.7-.68A1.74,1.74,0,0,0,23,29.79c-1.49,0-2.1,1.24-2.31,2.63ZM20.53,33a6.52,6.52,0,0,0-.09,1.17,3.47,3.47,0,0,0,3.38,3.38,2.7,2.7,0,0,0,2.42-1.23c.12-.17.2-.35.3-.35a.41.41,0,0,1,.33.25,3.75,3.75,0,0,1-3.54,2.6c-2.95,0-4.49-1.8-4.49-4.67s2-4.93,4.12-4.93a3.44,3.44,0,0,1,3.69,3.55c0,.21-.09.23-.25.23Z"/>
    <path class="cls-1" d="M31.2,36.67c0,1.16,0,1.41.95,1.41.55,0,.6,0,.6.27s0,.27-.21.27-.37,0-1.81,0c-1.94,0-2.48,0-2.68,0s-.17-.13-.17-.23c0-.26,0-.31.79-.31a.71.71,0,0,0,.74-.49c.08-.18.12-2.9.12-3.77V26.64c0-1.79-.06-2-1.19-2.14a.21.21,0,0,1-.19-.24c0-.17.06-.27.17-.29a16.83,16.83,0,0,0,2.86-.89c.08,0,.12.11.12.23a19,19,0,0,0-.1,3Z"/>
    <path class="cls-1" d="M39.16,32.42c.41,0,.7-.12.7-.68a1.74,1.74,0,0,0-1.81-1.95c-1.49,0-2.1,1.24-2.31,2.63ZM35.62,33a6.52,6.52,0,0,0-.09,1.17,3.47,3.47,0,0,0,3.38,3.38,2.67,2.67,0,0,0,2.41-1.23c.13-.17.21-.35.31-.35a.41.41,0,0,1,.33.25,3.75,3.75,0,0,1-3.54,2.6c-3,0-4.49-1.8-4.49-4.67s2-4.93,4.12-4.93a3.43,3.43,0,0,1,3.68,3.55c0,.21-.08.23-.24.23Z"/>
    <path class="cls-1" d="M50.72,36.85c.16-.14.25-.32.35-.32s.31.14.31.28a.44.44,0,0,1-.17.31,4.64,4.64,0,0,1-3.6,1.74c-2.39,0-4.27-1.7-4.27-4.63A4.55,4.55,0,0,1,48,29.34c2.82,0,3.36,1.52,3.36,1.95a1.06,1.06,0,0,1-1.09.88c-.66,0-.75-.2-1-1.33-.06-.31-.21-1-1.28-1-1.3,0-2.91,1-2.91,4.36a3.26,3.26,0,0,0,3.51,3.48,3.77,3.77,0,0,0,2.08-.86"/>
    <path class="cls-1" d="M64.46,38.08c-.91,0-.95-.25-.95-1.41V32a21,21,0,0,0,0-2.13.26.26,0,0,0-.24-.24,7.8,7.8,0,0,0-.79,0l-6.86,0c0-1.17.07-1.52.07-1.89a.25.25,0,0,0-.25-.27c-.41,0-.8,1.09-2.72,2.53a.36.36,0,0,0-.12.28c0,.13.06.19.12.19h1c.15,0,.21.11.21.27v5.65a2.23,2.23,0,0,0,2.37,2.54c1.87,0,2.23-.69,2.23-.82s-.15-.32-.23-.32a1.58,1.58,0,0,1-.89.2c-1.63,0-1.82-.78-1.82-3V30.4c1,0,3.68.05,5.16.09.89.11,1.07.4,1.07,1.08v3.06a20.69,20.69,0,0,1-.13,3c-.12.29-.31.49-.84.49-.76,0-.78.05-.78.31,0,.1,0,.23.16.23.31,0,.85,0,2.78,0,1.34,0,1.61,0,1.71,0s.21-.15.21-.27,0-.27-.49-.27"/>
    <path class="cls-1" d="M70.74,29.88c-2.14,0-2.82,2.21-2.82,4.22,0,1.75.41,4.23,2.82,4.23s2.84-2.48,2.84-4.23c0-2-.67-4.22-2.84-4.22m0,9A4.6,4.6,0,0,1,66,34.1a4.79,4.79,0,0,1,9.58,0,4.5,4.5,0,0,1-4.8,4.76"/>
    <path class="cls-1" d="M79.87,36.67c0,1.16,0,1.41.95,1.41.56,0,.6,0,.6.27s0,.27-.21.27-.37,0-1.81,0c-1.94,0-2.48,0-2.78,0s-.17-.13-.17-.23c0-.26,0-.31.78-.31a.77.77,0,0,0,.85-.49,21.31,21.31,0,0,0,.12-3v-2.8c0-.72-.18-1.13-1.22-1.24-.16,0-.18-.1-.18-.24s.06-.27.17-.29a9.17,9.17,0,0,0,2.88-1s.06.07.06.23,0,.58,0,1.48a6.26,6.26,0,0,1,3.23-1.42c.7,0,2.72.14,2.72,3.08v4.93c0,.34.07.73,1.34.73.21,0,.21.13.21.27s0,.27-.29.27c-.62,0-1,0-2.08,0-1.67,0-2,0-2.16,0s-.15-.15-.15-.25a.27.27,0,0,1,.29-.29c1,0,1.17-.08,1.17-.75V33.65c0-1.91-.16-3.18-2.3-3.18a3,3,0,0,0-2,.94Z"/>
    <rect class="cls-1" x="92.34" y="21.57" width="0.94" height="7.88"/>
    <path class="cls-1" d="M105.12,36.08c0,1-.54,2.78-3.36,2.78-.37,0-1.57-.16-2.37-.16a.13.13,0,0,1-.1-.1c0-.21-.48-2-.48-2.22s.29-.13.37-.13c.5,0,.62,2.08,2.6,2.08a1.74,1.74,0,0,0,1.87-1.83c0-2.15-4.61-1.46-4.61-4.37a2.89,2.89,0,0,1,3.13-2.79,16.51,16.51,0,0,1,2.23.19c.27.06.31.45.31.57,0,.84.22,1.38.22,1.65s-.12.16-.22.16-.31,0-.42-.29a2.41,2.41,0,0,0-2.14-1.75,1.49,1.49,0,0,0-1.65,1.54,1.58,1.58,0,0,0,1,1.38c2.16,1,3.65,1,3.65,3.29"/>
    <path class="cls-1" d="M114,36.85c.16-.14.25-.32.35-.32s.31.14.31.28a.46.46,0,0,1-.16.31,4.67,4.67,0,0,1-3.61,1.74c-2.39,0-4.26-1.7-4.26-4.63a4.54,4.54,0,0,1,4.67-4.89c2.82,0,3.36,1.52,3.36,1.95a1.06,1.06,0,0,1-1.09.88c-.67,0-.75-.2-1-1.33-.06-.31-.21-1-1.28-1-1.3,0-2.9,1-2.9,4.36a3.25,3.25,0,0,0,3.5,3.48,3.77,3.77,0,0,0,2.08-.86"/>
    <path class="cls-1" d="M118.62,30.57a5.58,5.58,0,0,1,3.23-1.23c.7,0,2.72.14,2.72,3.08v4.93c0,.34.06.73,1.34.73.2,0,.2.13.2.27s0,.27-.28.27c-.62,0-1,0-2.08,0-1.67,0-2,0-2.17,0s-.14-.15-.14-.25a.26.26,0,0,1,.28-.29c1,0,1.18-.08,1.18-.75V33.65c0-1.91-.16-3.18-2.31-3.18-.88,0-1.89.41-2,.76v5.44c0,1.17,0,1.41.94,1.41.56,0,.6,0,.6.27s0,.27-.2.27-.38,0-1.82,0c-1.93,0-2.47,0-2.68,0s-.16-.13-.16-.23c0-.27,0-.31.78-.31a.71.71,0,0,0,.74-.49c.09-.18.12-2.9.12-3.77V26.64c0-1.79-.06-2-1.19-2.14-.12,0-.18-.1-.18-.25s.06-.26.16-.28a16.48,16.48,0,0,0,2.86-.89c.09,0,.13.11.13.23a19,19,0,0,0-.1,3Z"/>
    <path class="cls-1" d="M132,36.38c-.86,1.8-1,2.48-1.31,2.48s-.32-.28-1-2.09c-1.83-4.74-2.2-5.81-2.34-6a1.15,1.15,0,0,0-1.14-.52c-.14,0-.27,0-.27-.2v-.16c0-.08.06-.17.23-.17.66,0,1.3,0,2,0l2.24,0c.15,0,.17.18.17.29a.23.23,0,0,1-.21.24c-.16,0-1.09,0-1.09.48s1.9,4.94,2.06,5.62h.05c.18-.49,1.87-3.66,1.87-4a7.53,7.53,0,0,0-.62-2c-.06-.1-.18-.17-.54-.17s-.45-.08-.45-.28.08-.25.27-.25c.39,0,.64,0,1.6,0,.77,0,1.39,0,2,0,.15,0,.19.15.19.25s0,.28-.25.28c-.86,0-.92.23-.92.31,0,.55,1.58,4.91,1.77,5.79h0c.35-1,2.06-4.8,2.06-5.58,0-.31-.31-.39-.89-.52a.25.25,0,0,1-.26-.28c0-.16.08-.25.26-.25s.58,0,1.77,0c.77,0,1.16,0,1.35,0s.18.15.18.25a.28.28,0,0,1-.31.28c-1,0-1.13.19-1.67,1.45-.47,1.1-2.68,6.8-2.88,7a.34.34,0,0,1-.25.14c-.19,0-.27-.14-.31-.28-.62-1.79-1.13-3.6-1.77-5.42Z"/>
    <path class="cls-1" d="M145.93,34.43c0-.1-.06-.2-.15-.2a10.84,10.84,0,0,0-2,1,1.49,1.49,0,0,0-.69,1.5c0,.64.27,1.27,1,1.27s1.9-.72,1.9-1.09Zm1.67,3c0,.32.14.41.35.41.41,0,.72-.47.88-.47s.27.14.27.22A3.32,3.32,0,0,1,147,38.86c-.74,0-.9-.47-1.13-1.19a3.94,3.94,0,0,1-2.66,1.19,1.79,1.79,0,0,1-2-1.82c0-1,.62-1.91,4.66-3.41V31.76c0-1.06-1.24-1.62-1.73-1.62a2.42,2.42,0,0,0-1.47.95c0,.29.27.57.27,1,0,.23-.18.79-1,.79a.79.79,0,0,1-.86-.77c0-.55.14-.82,1.69-1.84s1.77-1,2.22-1a2.51,2.51,0,0,1,2.56,2.36Z"/>
    <path class="cls-1" d="M153.12,36.67c0,1.16,0,1.41.94,1.41.56,0,.61,0,.61.27s0,.27-.21.27-.37,0-1.81,0c-1.94,0-2.47,0-2.79,0-.16,0-.16-.13-.16-.23,0-.26,0-.31.78-.31a.77.77,0,0,0,.85-.49,21.31,21.31,0,0,0,.12-3v-2.8c0-.72-.19-1.13-1.21-1.24-.17,0-.19-.1-.19-.24s.07-.27.16-.29a9,9,0,0,0,2.89-1c.05,0,.06.07.06.23s0,.58,0,1.48a6.25,6.25,0,0,1,3.24-1.42c.7,0,2.71.14,2.71,3.08v4.93c0,.34.07.73,1.34.73.21,0,.21.13.21.27s0,.27-.29.27c-.61,0-1,0-2.08,0-1.67,0-2,0-2.16,0s-.15-.15-.15-.25a.27.27,0,0,1,.29-.29c1,0,1.17-.08,1.17-.75V33.65c0-1.91-.16-3.18-2.3-3.18a3,3,0,0,0-2,.94Z"/>
    <path class="cls-1" d="M168.22,31.56c0-.48-.19-1.7-2.1-1.7-2.35,0-2.82,2.52-2.82,3.79,0,4.43,2.32,4.49,2.91,4.49a1.82,1.82,0,0,0,2-1.78Zm0-4.92c0-1.79-.06-2-1.19-2.14a.21.21,0,0,1-.19-.24c0-.17.06-.27.17-.29a16.48,16.48,0,0,0,2.86-.89c.09,0,.12.11.12.23a19,19,0,0,0-.1,3l.25,10.57c0,.56-.25,1,.85,1a.22.22,0,0,1,.16.22c0,.13,0,.29-.15.31-2,.41-2.34.55-2.51.55s-.22-.06-.22-.2.06-.53.06-.88a4.43,4.43,0,0,1-2.83,1.08c-2.57,0-4-2-4-4.38a4.81,4.81,0,0,1,4.57-5.16,4.47,4.47,0,0,1,2.14.45Z"/>
    <path class="cls-1" d="M177.8,32.42c.41,0,.71-.12.71-.68a1.74,1.74,0,0,0-1.81-1.95c-1.49,0-2.1,1.24-2.32,2.63Zm-3.54.62a7.58,7.58,0,0,0-.08,1.17,3.46,3.46,0,0,0,3.38,3.38A2.68,2.68,0,0,0,180,36.36c.12-.17.21-.35.31-.35a.43.43,0,0,1,.33.25,3.77,3.77,0,0,1-3.55,2.6c-2.95,0-4.49-1.8-4.49-4.67s2-4.93,4.13-4.93a3.44,3.44,0,0,1,3.68,3.55c0,.21-.08.23-.25.23Z"/>
    <path class="cls-1" d="M183.26,31.83c0-.72-.18-1.13-1.21-1.24-.16,0-.19-.1-.19-.24s.07-.27.17-.29a9,9,0,0,0,2.88-1s.09.13.09.21c0,.25-.11.76-.11,1.87.68-.76,1.79-1.79,2.89-1.79a1.17,1.17,0,0,1,1.32,1.15,1,1,0,0,1-1,1c-.85,0-1-.78-1.59-.78a2.32,2.32,0,0,0-1.42.88.88.88,0,0,0-.14.6v4.65c0,.76,0,1.21,1,1.21.77,0,.85,0,.85.25s-.08.29-.31.29c-.74,0-1.41,0-2.35,0-1.65,0-2,0-2.39,0-.14,0-.19-.13-.19-.27s.25-.27.65-.27c.88,0,1-.16,1-1Z"/>
    <rect class="cls-1" x="92.34" y="38.6" width="0.94" height="7.88"/>
    <path class="cls-1" d="M97.56,55.38c0-.28-.08-.47-.54-.47-1.31,0-2.65,3.58-2.65,4.54,0,.22.08.33.19.33.89,0,3-3.31,3-4.4m1.39-1s.08,0,.08.09c0,.28-1.85,4.53-1.85,5,0,.08,0,.17.13.17.38,0,1.28-1.4,1.44-1.4a.14.14,0,0,1,.12.11c0,.1-1.48,2.16-2.4,2.16-.28,0-.4-.15-.4-.3a21,21,0,0,1,.82-2.3s0-.07,0-.07-.38.53-.53.7c-.66.89-1.58,2-2.54,2-.45,0-.53-.3-.53-.65a9,9,0,0,1,2.41-4.61,2.08,2.08,0,0,1,1.6-.68c.37,0,.49.09.58.18s.12.19.16.19.17-.53.33-.53Z"/>
    <path class="cls-1" d="M103.41,60.36c-.09,0-.17,0-.17-.13s.73-2.36.73-2.5,0-.08,0-.08a21.88,21.88,0,0,1-2,2.42,1.75,1.75,0,0,1-1.19.44c-.31,0-.55-.21-.55-.78s1.71-4.35,1.71-4.79a.16.16,0,0,0-.16-.15,2.51,2.51,0,0,0-1.59,1.79c0,.05-.05.05-.11.05s-.11-.07-.11-.16A2.93,2.93,0,0,1,101,54.8a3.21,3.21,0,0,1,1.84-.39.21.21,0,0,1,.23.22c0,.25-1.87,4.34-1.87,4.94a.25.25,0,0,0,.24.26c.45,0,.91-.42,1.9-1.82a6.6,6.6,0,0,0,.92-1.5c.6-1.63.57-2,.77-2h.77c.11,0,.18,0,.18.09,0,.22-1.65,4.73-1.65,5,0,.06,0,.17.1.17.6,0,1.41-1.5,1.47-1.5s.18,0,.18.1c0,.26-1,2-2.16,2Z"/>
    <path class="cls-1" d="M106.85,59.22c.66,0,.56.86,1.23.86a.86.86,0,0,0,.72-.83,5.28,5.28,0,0,0-.6-1.64,3.47,3.47,0,0,1-.51-1.45,1.74,1.74,0,0,1,1.89-1.59c.62,0,1.27.19,1.27.79a.55.55,0,0,1-.56.5c-.6,0-.55-.91-1.17-.91a.63.63,0,0,0-.67.64,4.38,4.38,0,0,0,.57,1.46,4,4,0,0,1,.59,1.72c0,1-1.32,1.74-2.22,1.74-.53,0-1-.27-1-.8a.52.52,0,0,1,.47-.49"/>
    <path class="cls-1" d="M112.65,58c0,.89.43,1,.7,1,1,0,1.62-1.7,1.62-2.87,0-.26,0-1.12-.7-1.12-1.1,0-1.62,2.14-1.62,3m-1.46,4.57c0,.9,1.22,1.26,2,1.26,1.85,0,2.13-.87,2.13-1.32,0-.73-.79-.93-1.35-1.11a8.08,8.08,0,0,0-1.08-.29c-.13,0-1.65.55-1.65,1.46m5.68-6.87c-.42,0-.31-.47-.73-.47a.7.7,0,0,0-.48.28,3.26,3.26,0,0,1,.18,1.08,2.51,2.51,0,0,1-2.48,2.72,2.29,2.29,0,0,1-.52,0,.66.66,0,0,0-.24.44c0,.46.51.4,2.31,1,.42.13,1.3.4,1.3,1.36s-.82,2.08-3.1,2.08c-2.69,0-2.72-1.2-2.7-1.43,0-.49.34-1,2-1.77,0,0-.58-.24-.58-.72s.64-.87.64-1-.77-.39-.77-1.42c0-1.2.82-3.13,2.25-3.13a2.21,2.21,0,0,1,1.44.58c.09,0,.72-.58,1.32-.58a.55.55,0,0,1,.57.58.44.44,0,0,1-.44.46"/>
    <path class="cls-1" d="M121,55.51c0-.24-.11-.55-.42-.55-.7,0-1.27,1-1.66,2.34C120.6,57.11,121,56,121,55.51m.89,0c0,.63-.55,1.64-3,2.11a7.45,7.45,0,0,0-.15,1.07c0,.55.19,1.1.84,1.1s1.33-1,1.42-1a.15.15,0,0,1,.16.17c0,.11-1,1.54-2.13,1.54s-1.26-.79-1.26-1.64c0-2.46,1.61-4.25,3-4.25.62,0,1.08.26,1.08.9"/>
    <path class="cls-1" d="M122.6,59.22c.67,0,.56.86,1.23.86a.85.85,0,0,0,.72-.83,5.28,5.28,0,0,0-.6-1.64,3.47,3.47,0,0,1-.51-1.45,1.75,1.75,0,0,1,1.9-1.59c.61,0,1.26.19,1.26.79a.54.54,0,0,1-.56.5c-.6,0-.54-.91-1.17-.91a.64.64,0,0,0-.68.64,4.65,4.65,0,0,0,.58,1.46,3.89,3.89,0,0,1,.59,1.72c0,1-1.31,1.74-2.22,1.74-.52,0-1-.27-1-.8a.52.52,0,0,1,.47-.49"/>
    <path class="cls-1" d="M130.73,60.36c-.09,0-.17,0-.17-.13s.74-2.36.74-2.5,0-.08,0-.08a21.17,21.17,0,0,1-2,2.42,1.75,1.75,0,0,1-1.19.44c-.31,0-.55-.21-.55-.78s1.71-4.35,1.71-4.79a.15.15,0,0,0-.15-.15,2.52,2.52,0,0,0-1.6,1.79c0,.05,0,.05-.12.05s-.1-.07-.1-.16a2.9,2.9,0,0,1,1.09-1.67,3.19,3.19,0,0,1,1.83-.39.21.21,0,0,1,.23.22c0,.25-1.87,4.34-1.87,4.94a.25.25,0,0,0,.25.26c.44,0,.9-.42,1.9-1.82a6.36,6.36,0,0,0,.91-1.5c.6-1.63.58-2,.78-2h.77c.1,0,.17,0,.17.09,0,.22-1.65,4.73-1.65,5,0,.06,0,.17.1.17.61,0,1.42-1.5,1.47-1.5s.18,0,.18.1c0,.26-1,2-2.15,2Z"/>
    <path class="cls-1" d="M137.81,55.87c-.77,0-.43-.82-.94-.82-.85,0-1.57,2.91-1.57,3.83,0,.44.13.95.65.95.67,0,1.11-1,1.33-1a.13.13,0,0,1,.12.13s-.84,1.51-1.88,1.51a1.22,1.22,0,0,1-1.27-1.37c0-1.3,1.24-4.52,3.24-4.52.4,0,.94.2.94.68a.56.56,0,0,1-.62.57"/>
    <path class="cls-1" d="M138.92,60.36c-.1,0-.17-.07-.17-.2s2.53-8.18,2.53-8.27c0-.34-.18-.36-.45-.36s-.4,0-.4-.19.15-.19.4-.22c.8-.08,1.38-.18,1.47-.18s.2,0,.2.11-1.63,5.53-1.63,5.61,0,.05,0,.05.09-.11.12-.15c1.1-1.51,2.08-1.94,2.59-1.94a.81.81,0,0,1,.87.87c0,1.74-1.64,5-3.11,5-.34,0-.55-.15-.55-.52a.63.63,0,0,1,.55-.64c.44,0,.31.48.66.48.66,0,1.41-3.06,1.41-3.66s-.18-.77-.58-.77-1.15.59-2,1.92a11.28,11.28,0,0,0-1.11,2.86c0,.07-.06.18-.16.18Z"/>
    <path class="cls-1" d="M145.67,55.44c-.12,0-.16,0-.16-.09s.15-.45.32-.45h1c.08,0,.11,0,.15,0a11.1,11.1,0,0,0,.45-1.35c0-.06.09-.08.16-.08h.61c.09,0,.11,0,.11.11s-.36,1.1-.36,1.24.07.11.14.11h1.13c.09,0,.13,0,.13.15s-.13.43-.27.43-.43,0-.63,0h-.58c-.13,0-.19.22-.27.47s-1.12,3.81-1.12,3.85.08.22.18.22c.53,0,1.73-1.24,1.79-1.24s.13,0,.13.1a3.82,3.82,0,0,1-2.72,1.67c-.27,0-.43-.17-.43-.48s1.32-4.34,1.32-4.49-.06-.1-.19-.1Z"/>
    <path class="cls-1" d="M153.12,55.51c0-.24-.11-.55-.41-.55-.71,0-1.29,1-1.67,2.34,1.64-.19,2.08-1.32,2.08-1.79m.9,0c0,.63-.55,1.64-3,2.11a7.45,7.45,0,0,0-.16,1.07c0,.55.19,1.1.84,1.1s1.33-1,1.42-1a.15.15,0,0,1,.16.17c0,.11-1,1.54-2.13,1.54s-1.26-.79-1.26-1.64c0-2.46,1.61-4.25,3.05-4.25.61,0,1.09.26,1.09.9"/>
    <path class="cls-1" d="M161.71,54.57c.21,0,.37,0,.5,0s.15.07.15.26c0,.45-1.56,2.41-1.56,4,0,.55.23,1,.85,1,1.11,0,2-2.66,2-3.26s-.32-.63-.32-1.09a.77.77,0,0,1,.7-.86c.34,0,.51.14.51.49,0,.72-1,2.53-1,3.7,0,.42.15,1,.69,1,1.09,0,2.18-2.57,2.18-3.49,0-.61-.88-.61-.88-1.16a.67.67,0,0,1,.62-.66c.56,0,.77.66.77,1.12,0,1.59-1.49,5-3.38,5-.62,0-.82-.39-.82-.95,0,0,0-.08,0-.08s-.94,1-1.8,1a1.05,1.05,0,0,1-1.06-1.13c0-1.51,1.91-3.62,1.91-4,0,0-.08-.06-.23-.06h-1.36c-1.2,0-.91,1.32-1.21,1.32-.07,0-.15,0-.15-.12,0-.57.52-2,.76-2Z"/>
    <path class="cls-1" d="M171.06,55.51c0-.24-.11-.55-.42-.55-.7,0-1.28,1-1.65,2.34a2.07,2.07,0,0,0,2.07-1.79m.89,0c0,.63-.54,1.64-3,2.11a6.27,6.27,0,0,0-.16,1.07c0,.55.2,1.1.84,1.1s1.33-1,1.42-1a.15.15,0,0,1,.16.17c0,.11-1,1.54-2.13,1.54s-1.26-.79-1.26-1.64c0-2.46,1.61-4.25,3.05-4.25.62,0,1.08.26,1.08.9"/>
    <path class="cls-1" d="M175.47,51.37a.62.62,0,1,1,0,1.24.62.62,0,1,1,0-1.24m-2.38,4.84s-.09-.08-.09-.14,1.15-1.55,2.14-1.55a.37.37,0,0,1,.4.38c0,.54-1.66,4.39-1.66,4.6s0,.17.09.17c.31,0,1.22-.94,1.28-.94s.15,0,.15.12-1.39,1.73-2.31,1.66c-.37,0-.37-.32-.37-.52,0-.36,1.72-4.44,1.72-4.51s0-.19-.1-.19c-.35,0-.83.57-1.14.86-.06,0-.08.06-.11.06"/>
    <path class="cls-1" d="M180,60.36c-.07,0-.09,0-.09-.11,0-.48,1.73-4.17,1.73-4.85a.34.34,0,0,0-.34-.37c-.87,0-1.51,1.44-2.76,3.58-.07.12-.22.51-.71,1.63,0,.06-.05.12-.14.12h-.78c-.06,0-.1,0-.1-.11s1.78-4.71,1.78-5.09c0-.07,0-.16-.1-.16-1,0-1.58,1.3-1.58,1.58,0,0-.07.06-.11.06a.11.11,0,0,1-.12-.12c0-.31.43-1.9,1.84-1.9h1c.08,0,.14,0,.14.12s-1,2.51-1,2.93c0,.07,0,.09,0,.09s.09-.06.35-.53c1.41-2.54,1.81-2.71,2.55-2.71.36,0,1,0,1,.65,0,1.07-1.59,4.07-1.59,4.57,0,.06.09.11.13.11.61,0,1.32-1.37,1.46-1.37a.18.18,0,0,1,.14.12c0,.17-1,1.76-2.1,1.76Z"/>
    <path class="cls-1" d="M187.31,55.51c0-.24-.11-.55-.41-.55-.71,0-1.29,1-1.67,2.34,1.64-.19,2.08-1.32,2.08-1.79m.89,0c0,.63-.55,1.64-3,2.11A6.28,6.28,0,0,0,185,58.7c0,.55.2,1.1.85,1.1s1.33-1,1.42-1a.15.15,0,0,1,.16.17c0,.11-1,1.54-2.13,1.54s-1.26-.79-1.26-1.64c0-2.46,1.61-4.25,3.05-4.25.62,0,1.08.26,1.08.9"/>
  </g>
</svg>
