<svg id="Ebene_1" data-name="Ebene 1" xmlns="http://www.w3.org/2000/svg" viewBox="0 0 200 80">
  <defs>
    <style>
      .cls-1 {
        fill: #4d4d4c;
      }
    </style>
  </defs>
  <path class="cls-1" d="M150.44,45.35h-3.21a1.18,1.18,0,0,1-1.24-.71l-3.52-6.29a1.66,1.66,0,0,1-.29-.88,3,3,0,0,1,.12-.65l.29-1.23c.27-1.12.56-.73,1.42-1.09a2.09,2.09,0,0,0,1.35-2.26c0-1.65-.85-2.29-2.62-2.29h-2.81V44.56c0,.58-.17.79-.76.79h-2.72c-.59,0-.77-.21-.77-.79V27.24c0-.59.18-.79.77-.79H143c4.55,0,6.62,2.06,6.62,5.73a5.58,5.58,0,0,1-3.07,5.06l4.31,7.11c.47.74,0,1-.45,1m-24.2-7.53-2.18-.55c-2.86-.74-4.52-2.53-4.52-5.56,0-3.35,2.36-5.47,7.23-5.47a42,42,0,0,1,5.14.27c.38.06.59.23.53.68l-.36,2.2c-.11.65-.32.73-1.09.68s-2.6-.21-4.42-.21c-1.36,0-2.78.29-2.78,1.82,0,1.09.68,1.56,2.16,1.94l2.18.56c3.89,1,5,2.91,5,5.47,0,4.35-3.43,5.88-8.12,5.88a48,48,0,0,1-5.1-.27c-.39-.06-.6-.24-.54-.68l.36-2.26c.12-.64.32-.74,1.09-.67s2.89.23,4.13.23c2.72,0,3.84-.3,3.84-1.94,0-1.12-.77-1.64-2.57-2.12m-15.26,0-2.18-.55c-2.86-.74-4.52-2.53-4.52-5.56,0-3.35,2.37-5.47,7.23-5.47a42,42,0,0,1,5.14.27c.38.06.59.23.53.68l-.35,2.2c-.12.65-.33.73-1.1.68s-2.59-.21-4.42-.21c-1.36,0-2.78.29-2.78,1.82,0,1.09.68,1.56,2.16,1.94l2.18.56c3.9,1,5,2.91,5,5.47,0,4.35-3.42,5.88-8.12,5.88a48.15,48.15,0,0,1-5.1-.27c-.39-.06-.59-.24-.53-.68l.35-2.26c.12-.64.33-.74,1.09-.67s2.9.23,4.13.23c2.72,0,3.84-.3,3.84-1.94,0-1.12-.77-1.64-2.57-2.12m-19.54,4c.67,0,1.27,0,1.44,0V37.62H91.49c-.59,0-.76-.21-.76-.8v-2c0-.59.17-.8.76-.8h4.85c.58,0,.76.21.76.8v9.43c0,.65-.18.88-.79,1a24.42,24.42,0,0,1-5,.29c-7.17,0-9.47-4.11-9.47-9.9s2.8-9.41,9.73-9.41a34.57,34.57,0,0,1,4.58.21c.62.06.74.32.65.91l-.35,2.12c-.13.64-.33.73-1.1.67S92.94,30,91.82,30c-3.72,0-5.43,1.15-5.43,5.65,0,3.56,1,6.14,5,6.14m-11,2.56c.47.74,0,1-.44,1H76.77a1.18,1.18,0,0,1-1.24-.71L72,38.35a1.6,1.6,0,0,1-.3-.88,3,3,0,0,1,.12-.65l.29-1.23c.27-1.12.57-.73,1.42-1.09a2.09,2.09,0,0,0,1.36-2.26c0-1.65-.86-2.29-2.63-2.29h-2.8V44.56c0,.58-.18.79-.77.79H66c-.58,0-.76-.21-.76-.79V27.24c0-.59.18-.79.76-.79h6.59c4.54,0,6.61,2.06,6.61,5.73a5.56,5.56,0,0,1-3.07,5.06ZM55.78,37.82l-2.18-.55c-2.86-.74-4.51-2.53-4.51-5.56,0-3.35,2.36-5.47,7.22-5.47a41.73,41.73,0,0,1,5.14.27c.38.06.59.23.53.68l-.35,2.2c-.12.65-.33.73-1.09.68s-2.6-.21-4.43-.21c-1.36,0-2.78.29-2.78,1.82,0,1.09.68,1.56,2.16,1.94l2.18.56c3.9,1,5,2.91,5,5.47,0,4.35-3.42,5.88-8.12,5.88a48.15,48.15,0,0,1-5.1-.27c-.38-.06-.59-.24-.53-.68l.35-2.26c.12-.64.33-.74,1.09-.67s2.9.23,4.14.23c2.71,0,3.83-.3,3.83-1.94,0-1.12-.77-1.64-2.57-2.12m-13.88,18H158.1V16H41.9Z"/>
</svg>
