<svg id="Ebene_1" data-name="Ebene 1" xmlns="http://www.w3.org/2000/svg" viewBox="0 0 200 80">
  <defs>
    <style>
      .cls-1 {
        fill: #4d4d4c;
      }
    </style>
  </defs>
  <g>
    <g>
      <path class="cls-1" d="M36.45,13.5a1.92,1.92,0,0,0,1.08.29,1,1,0,0,0,1.1-1c0-1-2.25-1.08-2.25-2.37,0-.78.69-1.27,1.56-1.27a2.86,2.86,0,0,1,1,.16l-.08.44a2,2,0,0,0-.89-.18c-.51,0-1.06.21-1.06.84,0,1,2.25,1,2.25,2.43a1.44,1.44,0,0,1-1.61,1.38A2.84,2.84,0,0,1,36.4,14Z"/>
      <path class="cls-1" d="M42.93,11a2,2,0,0,0-.77-.18,1.33,1.33,0,0,0-1.35,1.49,1.36,1.36,0,0,0,1.3,1.5,2.29,2.29,0,0,0,.81-.16l0,.41a2.53,2.53,0,0,1-.92.13,1.7,1.7,0,0,1-1.71-1.88,1.73,1.73,0,0,1,1.77-1.87,2.73,2.73,0,0,1,.86.14Z"/>
      <path class="cls-1" d="M44.26,8.85h.44v2.3h0a1.21,1.21,0,0,1,1.12-.69c1,0,1.22.64,1.22,1.52v2.15h-.44V12c0-.62-.12-1.15-.85-1.15s-1.07.74-1.07,1.37v1.92h-.44Z"/>
      <path class="cls-1" d="M52.4,14.13h-.53l-1-3.1h0l-1,3.1h-.53l-1.16-3.59h.49l.94,3.1h0l1-3.1h.54l1,3.1h0l1-3.1h.44Z"/>
      <path class="cls-1" d="M57.14,14a2.87,2.87,0,0,1-1,.2c-1.19,0-1.63-.8-1.63-1.88s.6-1.87,1.51-1.87,1.43.81,1.43,1.78v.22H55a1.21,1.21,0,0,0,1.18,1.37,2.22,2.22,0,0,0,1-.27Zm-.22-1.93c0-.62-.25-1.24-.91-1.24A1.17,1.17,0,0,0,55,12.08Z"/>
      <path class="cls-1" d="M59.24,9.59H58.8V9h.44Zm-.44.95h.44v3.59H58.8Z"/>
      <path class="cls-1" d="M60.58,13.75l2.16-2.83H60.66v-.38h2.59v.38l-2.16,2.83h2.16v.38H60.58Z"/>
      <path class="cls-1" d="M67,14a2.87,2.87,0,0,1-1,.2c-1.19,0-1.63-.8-1.63-1.88s.6-1.87,1.51-1.87,1.43.81,1.43,1.78v.22H64.79A1.21,1.21,0,0,0,66,13.83a2.21,2.21,0,0,0,1-.27Zm-.22-1.93c0-.62-.25-1.24-.91-1.24a1.18,1.18,0,0,0-1.06,1.24Z"/>
      <path class="cls-1" d="M68.64,11.34a6,6,0,0,0,0-.8h.45v.69h0a1.05,1.05,0,0,1,.92-.77,1.37,1.37,0,0,1,.31,0V11a1.08,1.08,0,0,0-.32,0c-.71,0-.9.79-.9,1.43v1.78h-.44Z"/>
      <path class="cls-1" d="M72,9.59h-.44V9H72Zm-.44.95H72v3.59h-.44Z"/>
      <path class="cls-1" d="M73.36,13.61a2.17,2.17,0,0,0,.94.22c.42,0,.79-.23.79-.64,0-.85-1.72-.72-1.72-1.76,0-.71.58-1,1.17-1a2.74,2.74,0,0,1,.88.16l0,.39a2,2,0,0,0-.79-.17c-.46,0-.78.14-.78.59,0,.67,1.77.59,1.77,1.76,0,.76-.71,1-1.25,1a2.65,2.65,0,0,1-1-.17Z"/>
      <path class="cls-1" d="M79.25,11a1.88,1.88,0,0,0-.76-.18,1.33,1.33,0,0,0-1.35,1.49,1.36,1.36,0,0,0,1.3,1.5,2.29,2.29,0,0,0,.81-.16l0,.41a2.53,2.53,0,0,1-.92.13,1.71,1.71,0,0,1-1.72-1.88,1.74,1.74,0,0,1,1.78-1.87,2.79,2.79,0,0,1,.86.14Z"/>
      <path class="cls-1" d="M80.59,8.85H81v2.3h0a1.2,1.2,0,0,1,1.11-.69c1,0,1.23.64,1.23,1.52v2.15H83V12c0-.62-.12-1.15-.86-1.15S81,11.58,81,12.21v1.92h-.44Z"/>
      <path class="cls-1" d="M87.45,14a2.87,2.87,0,0,1-1,.2c-1.19,0-1.63-.8-1.63-1.88s.6-1.87,1.51-1.87,1.43.81,1.43,1.78v.22H85.26a1.21,1.21,0,0,0,1.19,1.37,2.21,2.21,0,0,0,1-.27Zm-.22-1.93c0-.62-.25-1.24-.91-1.24a1.18,1.18,0,0,0-1.06,1.24Z"/>
      <path class="cls-1" d="M91.45,9.22h2.4v.42H91.94v1.75h1.82v.42H91.94V13.7h2v.43H91.45Z"/>
      <path class="cls-1" d="M95.91,9.59h-.45V9h.45Zm-.45.95h.45v3.59h-.45Z"/>
      <path class="cls-1" d="M100.41,14.13H100v-.57h0a1.16,1.16,0,0,1-1.12.65c-1,0-1.48-.81-1.48-1.88s.42-1.87,1.48-1.87a1.22,1.22,0,0,1,1.12.69h0V8.85h.44Zm-1.5-.3c.79,0,1.06-.84,1.06-1.5s-.27-1.49-1.06-1.49-1.06.8-1.06,1.49S98.07,13.83,98.91,13.83Z"/>
      <path class="cls-1" d="M104.87,13.83c0,1-.45,1.81-1.68,1.81a3.56,3.56,0,0,1-1.08-.19l0-.44a2.47,2.47,0,0,0,1.06.26c1.14,0,1.23-.83,1.23-1.85h0a1.12,1.12,0,0,1-1.09.71c-1.15,0-1.51-1-1.51-1.8,0-1.09.42-1.87,1.48-1.87a1.17,1.17,0,0,1,1.11.49h0v-.41h.44Zm-1.53-.08c.8,0,1.09-.76,1.09-1.42,0-.86-.26-1.49-1.06-1.49s-1.07.8-1.07,1.49S102.59,13.75,103.34,13.75Z"/>
      <path class="cls-1" d="M108.89,14a2.87,2.87,0,0,1-1,.2c-1.19,0-1.63-.8-1.63-1.88s.6-1.87,1.51-1.87,1.43.81,1.43,1.78v.22H106.7a1.21,1.21,0,0,0,1.19,1.37,2.21,2.21,0,0,0,1-.27Zm-.22-1.93c0-.62-.25-1.24-.91-1.24a1.18,1.18,0,0,0-1.06,1.24Z"/>
      <path class="cls-1" d="M110.55,11.39a8.14,8.14,0,0,0,0-.85H111v.64h0a1.12,1.12,0,0,1,1.15-.72c.89,0,1.23.59,1.23,1.37v2.3h-.44V12c0-.68-.24-1.11-.86-1.11-.8,0-1.06.71-1.06,1.3v2h-.44Z"/>
      <path class="cls-1" d="M116.41,10.46a1.67,1.67,0,0,1,1.67,1.87,1.69,1.69,0,1,1-3.35,0A1.68,1.68,0,0,1,116.41,10.46Zm0,3.37c.77,0,1.18-.67,1.18-1.5s-.41-1.49-1.18-1.49-1.19.66-1.19,1.49S115.63,13.83,116.41,13.83Z"/>
      <path class="cls-1" d="M119.19,13.61a2.16,2.16,0,0,0,.93.22c.43,0,.8-.23.8-.64,0-.85-1.72-.72-1.72-1.76,0-.71.57-1,1.16-1a2.84,2.84,0,0,1,.89.16l0,.39a2.05,2.05,0,0,0-.8-.17c-.45,0-.77.14-.77.59,0,.67,1.76.59,1.76,1.76,0,.76-.71,1-1.25,1a2.6,2.6,0,0,1-1-.17Z"/>
      <path class="cls-1" d="M122.47,13.61a2.17,2.17,0,0,0,.94.22c.42,0,.79-.23.79-.64,0-.85-1.72-.72-1.72-1.76,0-.71.58-1,1.17-1a2.74,2.74,0,0,1,.88.16l0,.39a2,2,0,0,0-.79-.17c-.46,0-.78.14-.78.59,0,.67,1.77.59,1.77,1.76,0,.76-.71,1-1.25,1a2.65,2.65,0,0,1-1-.17Z"/>
      <path class="cls-1" d="M128.43,14a2.87,2.87,0,0,1-1,.2c-1.19,0-1.63-.8-1.63-1.88s.61-1.87,1.51-1.87,1.43.81,1.43,1.78v.22h-2.45c0,.76.4,1.37,1.18,1.37a2.21,2.21,0,0,0,1-.27Zm-.21-1.93c0-.62-.26-1.24-.92-1.24a1.17,1.17,0,0,0-1,1.24Z"/>
      <path class="cls-1" d="M130.09,11.39a8.14,8.14,0,0,0,0-.85h.43v.64h0a1.13,1.13,0,0,1,1.16-.72c.88,0,1.22.59,1.22,1.37v2.3h-.44V12c0-.68-.24-1.11-.85-1.11-.81,0-1.07.71-1.07,1.3v2h-.44Z"/>
      <path class="cls-1" d="M134.27,13.61a2.2,2.2,0,0,0,.94.22c.42,0,.79-.23.79-.64,0-.85-1.72-.72-1.72-1.76,0-.71.58-1,1.17-1a2.74,2.74,0,0,1,.88.16l0,.39a2,2,0,0,0-.79-.17c-.46,0-.78.14-.78.59,0,.67,1.77.59,1.77,1.76,0,.76-.71,1-1.25,1a2.65,2.65,0,0,1-1-.17Z"/>
      <path class="cls-1" d="M140.17,11a2,2,0,0,0-.77-.18,1.33,1.33,0,0,0-1.35,1.49,1.36,1.36,0,0,0,1.3,1.5,2.29,2.29,0,0,0,.81-.16l0,.41a2.53,2.53,0,0,1-.92.13,1.71,1.71,0,0,1-1.72-1.88,1.74,1.74,0,0,1,1.78-1.87,2.79,2.79,0,0,1,.86.14Z"/>
      <path class="cls-1" d="M141.5,8.85h.44v2.3h0a1.21,1.21,0,0,1,1.12-.69c1,0,1.22.64,1.22,1.52v2.15h-.44V12c0-.62-.12-1.15-.85-1.15s-1.07.74-1.07,1.37v1.92h-.44Z"/>
      <path class="cls-1" d="M148,13.55h0a1.25,1.25,0,0,1-1.14.66c-1,0-1.18-.69-1.18-1,0-1.2,1.28-1.26,2.21-1.26H148v-.18c0-.61-.21-.92-.81-.92a2,2,0,0,0-1.06.29V10.7a2.93,2.93,0,0,1,1.06-.24c.89,0,1.26.4,1.26,1.33v1.58a6.11,6.11,0,0,0,0,.76H148ZM148,12.32h-.12c-.77,0-1.68.08-1.68.86,0,.48.34.65.74.65,1,0,1.06-.91,1.06-1.29Z"/>
      <path class="cls-1" d="M150.32,10.92h-.72v-.38h.72v-.26c0-.75,0-1.51,1-1.51a1.06,1.06,0,0,1,.42.07l0,.39a.78.78,0,0,0-.35-.08c-.61,0-.54.65-.54,1.08v.31h.8v.38h-.8v3.21h-.45Z"/>
      <path class="cls-1" d="M154.46,10.92h-.82v2.32c0,.32.12.59.48.59a1,1,0,0,0,.41-.08l0,.36a1.62,1.62,0,0,1-.54.1c-.78,0-.81-.54-.81-1.19v-2.1h-.7v-.38h.7V9.68l.44-.16v1h.82Z"/>
      <path class="cls-1" d="M39.89,19.46a2.57,2.57,0,0,0-1.1-.21,1.93,1.93,0,0,0-2,2.12,1.9,1.9,0,0,0,2,2.11,2.4,2.4,0,0,0,1.1-.21l0,.43a2.71,2.71,0,0,1-1.13.21,2.34,2.34,0,0,1-2.47-2.54,2.36,2.36,0,0,1,2.47-2.54,3.3,3.3,0,0,1,1.13.18Z"/>
      <path class="cls-1" d="M42.93,20.15A1.68,1.68,0,0,1,44.61,22a1.69,1.69,0,1,1-3.35,0A1.67,1.67,0,0,1,42.93,20.15Zm0,3.38c.78,0,1.19-.67,1.19-1.5s-.41-1.5-1.19-1.5-1.18.67-1.18,1.5S42.16,23.53,42.93,23.53Z"/>
      <path class="cls-1" d="M46,21.08a8,8,0,0,0,0-.84h.43v.64h0a1.12,1.12,0,0,1,1.16-.73c.88,0,1.22.59,1.22,1.38v2.29h-.44V21.64c0-.67-.24-1.11-.85-1.11-.81,0-1.07.71-1.07,1.31v2H46Z"/>
      <path class="cls-1" d="M50.75,20.62H50v-.38h.72V20c0-.75,0-1.51,1-1.51a1,1,0,0,1,.41.07l0,.38a.83.83,0,0,0-.36-.07c-.6,0-.54.65-.54,1.08v.31H52v.38h-.81v3.2h-.44Z"/>
      <path class="cls-1" d="M55.74,23.71a2.87,2.87,0,0,1-1,.2c-1.19,0-1.63-.8-1.63-1.88s.6-1.88,1.51-1.88S56,21,56,21.93v.23H53.56c0,.76.4,1.37,1.18,1.37a2.34,2.34,0,0,0,1-.27Zm-.22-1.93c0-.63-.25-1.25-.91-1.25a1.18,1.18,0,0,0-1,1.25Zm-.73-2.93h.55l-.88,1h-.33Z"/>
      <path class="cls-1" d="M60.24,23.82H59.8v-.57h0a1.14,1.14,0,0,1-1.11.66c-1,0-1.48-.82-1.48-1.88s.42-1.88,1.48-1.88a1.2,1.2,0,0,1,1.11.69h0V18.55h.44Zm-1.5-.29c.78,0,1.06-.85,1.06-1.5s-.28-1.5-1.06-1.5-1.07.8-1.07,1.5S57.89,23.53,58.74,23.53Z"/>
      <path class="cls-1" d="M64.26,23.71a2.87,2.87,0,0,1-1,.2c-1.19,0-1.63-.8-1.63-1.88s.6-1.88,1.51-1.88,1.43.82,1.43,1.78v.23H62.07a1.21,1.21,0,0,0,1.19,1.37,2.34,2.34,0,0,0,1-.27ZM64,21.78c0-.63-.25-1.25-.91-1.25a1.18,1.18,0,0,0-1.06,1.25Zm-.73-2.93h.55l-.89,1h-.32Z"/>
      <path class="cls-1" d="M65.92,21a6,6,0,0,0,0-.8h.45v.69h0a1.06,1.06,0,0,1,.92-.78,1,1,0,0,1,.31.05v.46a1.08,1.08,0,0,0-.32,0c-.71,0-.9.78-.9,1.43v1.77h-.44Z"/>
      <path class="cls-1" d="M70.87,23.25h0a1.26,1.26,0,0,1-1.13.66c-1,0-1.18-.69-1.18-1,0-1.2,1.27-1.25,2.2-1.25h.09v-.19c0-.61-.22-.92-.82-.92a1.91,1.91,0,0,0-1.05.3V20.4A2.84,2.84,0,0,1,70,20.15c.89,0,1.26.4,1.26,1.34v1.58a4.41,4.41,0,0,0,0,.75h-.44Zm0-1.23H70.7c-.77,0-1.68.07-1.68.86,0,.47.34.65.75.65,1,0,1.06-.91,1.06-1.3Z"/>
      <path class="cls-1" d="M74.42,20.62H73.6v2.32c0,.32.12.59.48.59a1,1,0,0,0,.41-.09l0,.37a1.73,1.73,0,0,1-.54.1c-.79,0-.82-.54-.82-1.2V20.62h-.7v-.38h.7v-.87l.44-.15v1h.82Z"/>
      <path class="cls-1" d="M76.2,19.28h-.44v-.59h.44Zm-.44,1h.44v3.58h-.44Z"/>
      <path class="cls-1" d="M79.27,20.15A1.67,1.67,0,0,1,80.94,22a1.68,1.68,0,1,1-3.34,0A1.67,1.67,0,0,1,79.27,20.15Zm0,3.38c.77,0,1.19-.67,1.19-1.5s-.42-1.5-1.19-1.5-1.19.67-1.19,1.5S78.5,23.53,79.27,23.53Z"/>
      <path class="cls-1" d="M82.33,21.08a8,8,0,0,0,0-.84h.43v.64h0a1.14,1.14,0,0,1,1.16-.73c.89,0,1.22.59,1.22,1.38v2.29h-.44V21.64c0-.67-.24-1.11-.85-1.11-.81,0-1.06.71-1.06,1.31v2h-.44Z"/>
      <path class="cls-1" d="M88.94,23.3a2,2,0,0,0,.94.23c.42,0,.79-.23.79-.64,0-.85-1.72-.72-1.72-1.76,0-.71.58-1,1.17-1a3,3,0,0,1,.88.16l0,.39a2.2,2.2,0,0,0-.79-.17c-.46,0-.78.14-.78.6,0,.67,1.77.58,1.77,1.76,0,.76-.71,1-1.26,1a2.84,2.84,0,0,1-1-.17Z"/>
      <path class="cls-1" d="M95.3,23c0,.27,0,.55,0,.84H94.9v-.64h0a1.13,1.13,0,0,1-1.16.73c-.88,0-1.22-.59-1.22-1.38V20.24h.44v2.18c0,.67.24,1.11.85,1.11.81,0,1.06-.71,1.06-1.31v-2h.45Z"/>
      <path class="cls-1" d="M97.4,19.28H97v-.59h.44Zm-.44,1h.44v3.58H97Z"/>
      <path class="cls-1" d="M98.79,23.3a2,2,0,0,0,.93.23c.43,0,.8-.23.8-.64,0-.85-1.72-.72-1.72-1.76,0-.71.57-1,1.16-1a3.17,3.17,0,0,1,.89.16l0,.39a2.21,2.21,0,0,0-.8-.17c-.45,0-.77.14-.77.6,0,.67,1.76.58,1.76,1.76,0,.76-.71,1-1.25,1a2.8,2.8,0,0,1-1-.17Z"/>
      <path class="cls-1" d="M102.07,23.3a2,2,0,0,0,.94.23c.42,0,.79-.23.79-.64,0-.85-1.72-.72-1.72-1.76,0-.71.58-1,1.17-1a3,3,0,0,1,.88.16l0,.39a2.2,2.2,0,0,0-.79-.17c-.46,0-.78.14-.78.6,0,.67,1.77.58,1.77,1.76,0,.76-.71,1-1.25,1a2.86,2.86,0,0,1-1-.17Z"/>
      <path class="cls-1" d="M108,23.71a2.87,2.87,0,0,1-1,.2c-1.19,0-1.63-.8-1.63-1.88s.61-1.88,1.51-1.88,1.43.82,1.43,1.78v.23h-2.45A1.21,1.21,0,0,0,107,23.53a2.34,2.34,0,0,0,1-.27Zm-.21-1.93c0-.63-.26-1.25-.92-1.25a1.18,1.18,0,0,0-1.05,1.25Z"/>
      <path class="cls-1" d="M39.89,29.16a2.57,2.57,0,0,0-1.1-.21,1.93,1.93,0,0,0-2,2.12,1.91,1.91,0,0,0,2,2.11,2.4,2.4,0,0,0,1.1-.21l0,.42a2.71,2.71,0,0,1-1.13.21,2.34,2.34,0,0,1-2.47-2.53,2.36,2.36,0,0,1,2.47-2.54,3.3,3.3,0,0,1,1.13.18Z"/>
      <path class="cls-1" d="M42.93,29.85a1.68,1.68,0,0,1,1.68,1.88,1.69,1.69,0,1,1-3.35,0A1.67,1.67,0,0,1,42.93,29.85Zm0,3.37c.78,0,1.19-.66,1.19-1.49s-.41-1.5-1.19-1.5-1.18.67-1.18,1.5S42.16,33.22,42.93,33.22Z"/>
      <path class="cls-1" d="M46,30.78a8.14,8.14,0,0,0,0-.85h.43v.64h0a1.13,1.13,0,0,1,1.16-.72c.88,0,1.22.59,1.22,1.38v2.29h-.44V31.34c0-.68-.24-1.11-.85-1.11-.81,0-1.07.71-1.07,1.31v2H46Z"/>
      <path class="cls-1" d="M50.75,30.31H50v-.38h.72v-.26c0-.75,0-1.51,1-1.51a1,1,0,0,1,.41.07l0,.39a.83.83,0,0,0-.36-.08c-.6,0-.54.66-.54,1.08v.31H52v.38h-.81v3.21h-.44Z"/>
      <path class="cls-1" d="M55.74,33.41a3.09,3.09,0,0,1-1,.19c-1.19,0-1.63-.8-1.63-1.87s.6-1.88,1.51-1.88S56,30.66,56,31.63v.22H53.56c0,.76.4,1.37,1.18,1.37a2.34,2.34,0,0,0,1-.26Zm-.22-1.94c0-.62-.25-1.24-.91-1.24a1.17,1.17,0,0,0-1,1.24Z"/>
      <path class="cls-1" d="M60.24,33.52H59.8V33h0a1.13,1.13,0,0,1-1.11.65c-1,0-1.48-.81-1.48-1.87s.42-1.88,1.48-1.88a1.19,1.19,0,0,1,1.11.69h0V28.25h.44Zm-1.5-.3c.78,0,1.06-.84,1.06-1.49s-.28-1.5-1.06-1.5-1.07.8-1.07,1.5S57.89,33.22,58.74,33.22Z"/>
      <path class="cls-1" d="M64.26,33.41a3.09,3.09,0,0,1-1,.19c-1.19,0-1.63-.8-1.63-1.87s.6-1.88,1.51-1.88,1.43.81,1.43,1.78v.22H62.07a1.21,1.21,0,0,0,1.19,1.37,2.34,2.34,0,0,0,1-.26ZM64,31.47c0-.62-.25-1.24-.91-1.24a1.18,1.18,0,0,0-1.06,1.24Z"/>
      <path class="cls-1" d="M65.92,30.73a6,6,0,0,0,0-.8h.45v.69h0a1.05,1.05,0,0,1,.92-.77,1.37,1.37,0,0,1,.31,0v.47a1.07,1.07,0,0,0-.32-.05c-.71,0-.9.79-.9,1.44v1.77h-.44Z"/>
      <path class="cls-1" d="M70.87,32.94h0a1.24,1.24,0,0,1-1.13.66c-1,0-1.18-.69-1.18-1,0-1.2,1.27-1.26,2.2-1.26h.09v-.18c0-.61-.22-.92-.82-.92a1.9,1.9,0,0,0-1.05.29V30.1A2.66,2.66,0,0,1,70,29.85c.89,0,1.26.4,1.26,1.33v1.59a4.53,4.53,0,0,0,0,.75h-.44Zm0-1.23H70.7c-.77,0-1.68.08-1.68.87,0,.47.34.64.75.64,1,0,1.06-.9,1.06-1.29Z"/>
      <path class="cls-1" d="M72.54,33.15l2.16-2.84H72.63v-.38h2.58v.38l-2.15,2.83h2.15v.38H72.54Z"/>
      <path class="cls-1" d="M77,29h-.44v-.59H77Zm-.44.95H77v3.59h-.44Z"/>
      <path class="cls-1" d="M80.05,29.85a1.67,1.67,0,0,1,1.67,1.88,1.68,1.68,0,1,1-3.34,0A1.67,1.67,0,0,1,80.05,29.85Zm0,3.37c.77,0,1.19-.66,1.19-1.49s-.42-1.5-1.19-1.5-1.19.67-1.19,1.5S79.28,33.22,80.05,33.22Z"/>
      <path class="cls-1" d="M83.11,30.78a8.14,8.14,0,0,0,0-.85h.43v.64h0a1.15,1.15,0,0,1,1.16-.72c.89,0,1.22.59,1.22,1.38v2.29h-.44V31.34c0-.68-.24-1.11-.85-1.11-.81,0-1.06.71-1.06,1.31v2h-.44Z"/>
      <path class="cls-1" d="M90,33.41a3.09,3.09,0,0,1-1,.19c-1.19,0-1.63-.8-1.63-1.87s.6-1.88,1.51-1.88,1.43.81,1.43,1.78v.22H87.78A1.21,1.21,0,0,0,89,33.22,2.35,2.35,0,0,0,90,33Zm-.22-1.94c0-.62-.25-1.24-.91-1.24a1.17,1.17,0,0,0-1.06,1.24Z"/>
      <path class="cls-1" d="M94,32.89a1.9,1.9,0,0,0,1.09.29,1,1,0,0,0,1.1-1c0-1-2.25-1.09-2.25-2.37,0-.79.69-1.28,1.56-1.28a2.86,2.86,0,0,1,1,.16l-.08.44a2,2,0,0,0-.89-.18c-.51,0-1.06.21-1.06.84,0,1,2.25,1,2.25,2.43A1.44,1.44,0,0,1,95,33.6a2.84,2.84,0,0,1-1.11-.21Z"/>
      <path class="cls-1" d="M99.37,33.52h-.52l-1.22-3.59h.49l1,3.1h0l1-3.1h.46Z"/>
      <path class="cls-1" d="M102.23,29h-.44v-.59h.44Zm-.44.95h.44v3.59h-.44Z"/>
      <path class="cls-1" d="M103.57,33.15l2.16-2.84h-2.08v-.38h2.59v.38l-2.16,2.83h2.16v.38h-2.67Z"/>
      <path class="cls-1" d="M107.24,33.15l2.16-2.84h-2.08v-.38h2.59v.38l-2.16,2.83h2.16v.38h-2.67Z"/>
      <path class="cls-1" d="M113.64,33.41a3.09,3.09,0,0,1-1,.19c-1.19,0-1.63-.8-1.63-1.87s.61-1.88,1.51-1.88,1.43.81,1.43,1.78v.22h-2.45c0,.76.4,1.37,1.18,1.37a2.34,2.34,0,0,0,1-.26Zm-.22-1.94c0-.62-.25-1.24-.91-1.24a1.17,1.17,0,0,0-1.05,1.24Z"/>
      <path class="cls-1" d="M115.3,30.73a6,6,0,0,0,0-.8h.45v.69h0a1.05,1.05,0,0,1,.92-.77,1.37,1.37,0,0,1,.31,0v.47a1.07,1.07,0,0,0-.32-.05c-.71,0-.9.79-.9,1.44v1.77h-.44Z"/>
      <path class="cls-1" d="M120.25,32.94h0a1.27,1.27,0,0,1-1.14.66c-1,0-1.18-.69-1.18-1,0-1.2,1.28-1.26,2.2-1.26h.09v-.18c0-.61-.22-.92-.82-.92a1.9,1.9,0,0,0-1,.29V30.1a2.7,2.7,0,0,1,1-.25c.89,0,1.26.4,1.26,1.33v1.59a4.53,4.53,0,0,0,0,.75h-.44Zm0-1.23h-.13c-.76,0-1.68.08-1.68.87,0,.47.34.64.75.64,1,0,1.06-.9,1.06-1.29Z"/>
      <path class="cls-1" d="M39.89,38.86a2.44,2.44,0,0,0-1.1-.22,1.93,1.93,0,0,0-2,2.12,1.91,1.91,0,0,0,2,2.12,2.54,2.54,0,0,0,1.1-.21l0,.42a2.71,2.71,0,0,1-1.13.21,2.34,2.34,0,0,1-2.47-2.54,2.36,2.36,0,0,1,2.47-2.54,3.09,3.09,0,0,1,1.13.19Z"/>
      <path class="cls-1" d="M42.93,39.54a1.89,1.89,0,1,1-1.67,1.88A1.68,1.68,0,0,1,42.93,39.54Zm0,3.38c.78,0,1.19-.67,1.19-1.5s-.41-1.5-1.19-1.5-1.18.67-1.18,1.5S42.16,42.92,42.93,42.92Z"/>
      <path class="cls-1" d="M46,40.47a8,8,0,0,0,0-.84h.43v.64h0a1.13,1.13,0,0,1,1.16-.73c.88,0,1.22.6,1.22,1.38v2.29h-.44V41c0-.67-.24-1.11-.85-1.11-.81,0-1.07.71-1.07,1.31v2H46Z"/>
      <path class="cls-1" d="M50.75,40H50v-.38h.72v-.26c0-.75,0-1.51,1-1.51a1,1,0,0,1,.41.07l0,.38a1,1,0,0,0-.36-.07c-.6,0-.54.65-.54,1.08v.31H52V40h-.81v3.2h-.44Z"/>
      <path class="cls-1" d="M55.74,43.1a2.87,2.87,0,0,1-1,.2c-1.19,0-1.63-.8-1.63-1.88s.6-1.88,1.51-1.88S56,40.36,56,41.32v.23H53.56c0,.76.4,1.37,1.18,1.37a2.21,2.21,0,0,0,1-.27Zm-.22-1.93c0-.63-.25-1.25-.91-1.25a1.18,1.18,0,0,0-1,1.25Z"/>
      <path class="cls-1" d="M60.24,43.21H59.8v-.57h0a1.14,1.14,0,0,1-1.11.66c-1,0-1.48-.82-1.48-1.88s.42-1.88,1.48-1.88a1.2,1.2,0,0,1,1.11.69h0V37.94h.44Zm-1.5-.29c.78,0,1.06-.84,1.06-1.5s-.28-1.5-1.06-1.5-1.07.81-1.07,1.5S57.89,42.92,58.74,42.92Z"/>
      <path class="cls-1" d="M64.26,43.1a2.87,2.87,0,0,1-1,.2c-1.19,0-1.63-.8-1.63-1.88s.6-1.88,1.51-1.88,1.43.82,1.43,1.78v.23H62.07a1.21,1.21,0,0,0,1.19,1.37,2.21,2.21,0,0,0,1-.27ZM64,41.17c0-.63-.25-1.25-.91-1.25a1.18,1.18,0,0,0-1.06,1.25Z"/>
      <path class="cls-1" d="M65.92,40.43a6,6,0,0,0,0-.8h.45v.69h0a1.06,1.06,0,0,1,.92-.78,1.34,1.34,0,0,1,.31.05v.46a1.08,1.08,0,0,0-.32,0c-.71,0-.9.79-.9,1.43v1.77h-.44Z"/>
      <path class="cls-1" d="M70.87,42.64h0a1.24,1.24,0,0,1-1.13.66c-1,0-1.18-.69-1.18-1,0-1.21,1.27-1.26,2.2-1.26h.09v-.18c0-.62-.22-.93-.82-.93a1.91,1.91,0,0,0-1.05.3v-.43A2.84,2.84,0,0,1,70,39.54c.89,0,1.26.41,1.26,1.34v1.58a4.41,4.41,0,0,0,0,.75h-.44Zm0-1.23H70.7c-.77,0-1.68.08-1.68.86,0,.47.34.65.75.65,1,0,1.06-.91,1.06-1.29Z"/>
      <path class="cls-1" d="M72.54,42.84,74.7,40H72.63v-.38h2.58V40l-2.15,2.82h2.15v.38H72.54Z"/>
      <path class="cls-1" d="M77,38.67h-.44v-.59H77Zm-.44,1H77v3.58h-.44Z"/>
      <path class="cls-1" d="M81.45,42.37a8,8,0,0,0,0,.84h-.43v-.64h0a1.12,1.12,0,0,1-1.16.73c-.88,0-1.22-.59-1.22-1.38V39.63h.44v2.18c0,.67.24,1.11.85,1.11.81,0,1.07-.71,1.07-1.31v-2h.44Z"/>
      <path class="cls-1" d="M83.11,40.47a8,8,0,0,0,0-.84h.43v.64h0a1.15,1.15,0,0,1,1.16-.73c.89,0,1.22.6,1.22,1.38v2.29h-.44V41c0-.67-.24-1.11-.85-1.11-.81,0-1.06.71-1.06,1.31v2h-.44Z"/>
      <path class="cls-1" d="M89.72,42.69a2,2,0,0,0,.94.23c.42,0,.79-.23.79-.64,0-.85-1.72-.72-1.72-1.76,0-.71.58-1,1.17-1a2.8,2.8,0,0,1,.88.17l0,.38a2.21,2.21,0,0,0-.8-.17c-.45,0-.77.14-.77.6,0,.67,1.77.59,1.77,1.76,0,.76-.71,1-1.26,1a2.63,2.63,0,0,1-1-.17Z"/>
      <path class="cls-1" d="M94.52,43.21H94l-1.21-3.58h.48l1,3.1h0l1-3.1h.46Z"/>
      <path class="cls-1" d="M97.39,38.67H97v-.59h.44Zm-.44,1h.44v3.58H97Z"/>
      <path class="cls-1" d="M98.73,42.84,100.88,40H98.81v-.38h2.59V40l-2.16,2.82h2.16v.38H98.73Z"/>
      <path class="cls-1" d="M102.73,40.43a6,6,0,0,0,0-.8h.44v.69h0a1.09,1.09,0,0,1,.93-.78,1.44,1.44,0,0,1,.31.05v.46a1.19,1.19,0,0,0-.33,0c-.7,0-.89.79-.89,1.43v1.77h-.44Z"/>
      <path class="cls-1" d="M107.67,42.64h0a1.27,1.27,0,0,1-1.14.66c-1,0-1.18-.69-1.18-1,0-1.21,1.28-1.26,2.21-1.26h.08v-.18c0-.62-.22-.93-.81-.93a1.92,1.92,0,0,0-1.06.3v-.43a2.94,2.94,0,0,1,1.06-.25c.88,0,1.26.41,1.26,1.34v1.58a5.87,5.87,0,0,0,0,.75h-.44Zm0-1.23h-.12c-.77,0-1.68.08-1.68.86,0,.47.33.65.74.65,1,0,1.06-.91,1.06-1.29Z"/>
      <path class="cls-1" d="M36.52,57.7h2.41v.42H37v1.75h1.82v.42H37v1.89h2v.43H36.52Z"/>
      <path class="cls-1" d="M41,58.06h-.44v-.59H41Zm-.44,1H41v3.59h-.44Z"/>
      <path class="cls-1" d="M45.49,62.61H45V62h0a1.16,1.16,0,0,1-1.12.65c-1,0-1.48-.81-1.48-1.88s.43-1.87,1.48-1.87a1.21,1.21,0,0,1,1.12.69h0v-2.3h.45ZM44,62.31c.79,0,1.06-.84,1.06-1.5s-.27-1.49-1.06-1.49-1.06.8-1.06,1.49S43.14,62.31,44,62.31Z"/>
      <path class="cls-1" d="M49.94,62.31c0,1-.45,1.81-1.68,1.81a3.56,3.56,0,0,1-1.08-.19l0-.44a2.47,2.47,0,0,0,1.06.26c1.14,0,1.24-.83,1.24-1.85h0a1.12,1.12,0,0,1-1.09.71c-1.14,0-1.51-1-1.51-1.8,0-1.09.42-1.87,1.48-1.87a1.19,1.19,0,0,1,1.12.49h0V59h.44Zm-1.53-.08c.8,0,1.09-.76,1.09-1.42,0-.86-.25-1.49-1.06-1.49s-1.06.8-1.06,1.49S47.66,62.23,48.41,62.23Z"/>
      <path class="cls-1" d="M54,62.49a2.87,2.87,0,0,1-1,.2c-1.19,0-1.63-.8-1.63-1.88s.61-1.87,1.51-1.87,1.43.81,1.43,1.78v.22H51.78c0,.76.4,1.37,1.18,1.37A2.21,2.21,0,0,0,54,62Zm-.22-1.93c0-.63-.25-1.24-.91-1.24a1.17,1.17,0,0,0-1,1.24Z"/>
      <path class="cls-1" d="M55.62,59.86a8,8,0,0,0,0-.84H56v.64h0a1.13,1.13,0,0,1,1.16-.72c.88,0,1.22.59,1.22,1.37v2.3H58V60.43c0-.68-.24-1.11-.85-1.11-.81,0-1.07.71-1.07,1.3v2h-.44Z"/>
      <path class="cls-1" d="M61.48,58.94a1.89,1.89,0,1,1-1.68,1.87A1.67,1.67,0,0,1,61.48,58.94Zm0,3.37c.77,0,1.19-.67,1.19-1.5s-.42-1.49-1.19-1.49-1.19.66-1.19,1.49S60.7,62.31,61.48,62.31Zm-.87-4.48h.53v.59h-.53Zm1.2,0h.53v.59h-.53Z"/>
      <path class="cls-1" d="M64.26,62.09a2.17,2.17,0,0,0,.94.22c.42,0,.79-.23.79-.64,0-.85-1.72-.72-1.72-1.76,0-.71.57-1,1.16-1a2.84,2.84,0,0,1,.89.16l0,.39a2,2,0,0,0-.8-.17c-.45,0-.77.14-.77.59,0,.67,1.77.59,1.77,1.76,0,.76-.71,1-1.26,1a2.63,2.63,0,0,1-1-.17Z"/>
      <path class="cls-1" d="M67.54,62.09a2.17,2.17,0,0,0,.94.22c.42,0,.79-.23.79-.64,0-.85-1.72-.72-1.72-1.76,0-.71.58-1,1.17-1a2.74,2.74,0,0,1,.88.16l0,.39a2,2,0,0,0-.79-.17c-.46,0-.78.14-.78.59,0,.67,1.77.59,1.77,1.76,0,.76-.71,1-1.25,1a2.65,2.65,0,0,1-1-.17Z"/>
      <path class="cls-1" d="M71.54,58.06H71.1v-.59h.44Zm-.44,1h.44v3.59H71.1Z"/>
      <path class="cls-1" d="M72.94,62.09a2.12,2.12,0,0,0,.93.22c.42,0,.79-.23.79-.64,0-.85-1.72-.72-1.72-1.76,0-.71.58-1,1.17-1a2.84,2.84,0,0,1,.89.16l0,.39a2,2,0,0,0-.79-.17c-.46,0-.77.14-.77.59,0,.67,1.76.59,1.76,1.76,0,.76-.71,1-1.25,1a2.65,2.65,0,0,1-1-.17Z"/>
      <path class="cls-1" d="M78.83,59.5a2,2,0,0,0-.77-.18,1.33,1.33,0,0,0-1.35,1.49,1.36,1.36,0,0,0,1.3,1.5,2.29,2.29,0,0,0,.81-.16l0,.41a2.53,2.53,0,0,1-.92.13,1.7,1.7,0,0,1-1.71-1.88A1.73,1.73,0,0,1,78,58.94a2.73,2.73,0,0,1,.86.14Z"/>
      <path class="cls-1" d="M80.16,57.33h.44v2.3h0a1.21,1.21,0,0,1,1.12-.69c1,0,1.22.64,1.22,1.52v2.15h-.44V60.47c0-.62-.12-1.15-.85-1.15s-1.07.74-1.07,1.37v1.92h-.44Z"/>
      <path class="cls-1" d="M87,62.49a2.87,2.87,0,0,1-1,.2c-1.19,0-1.63-.8-1.63-1.88s.61-1.87,1.51-1.87,1.43.81,1.43,1.78v.22H84.84c0,.76.4,1.37,1.18,1.37A2.21,2.21,0,0,0,87,62Zm-.22-1.93c0-.63-.25-1.24-.91-1.24a1.17,1.17,0,0,0-1,1.24Z"/>
      <path class="cls-1" d="M88.41,62.09a2.12,2.12,0,0,0,.93.22c.42,0,.8-.23.8-.64,0-.85-1.73-.72-1.73-1.76,0-.71.58-1,1.17-1a2.84,2.84,0,0,1,.89.16l0,.39a2,2,0,0,0-.79-.17c-.46,0-.77.14-.77.59,0,.67,1.76.59,1.76,1.76,0,.76-.71,1-1.25,1a2.6,2.6,0,0,1-1-.17Z"/>
      <path class="cls-1" d="M94.47,57.7h1.22a2.19,2.19,0,0,1,2.45,2.45c0,1.77-1.18,2.46-2.81,2.46h-.86ZM95,62.18h.4c1.39,0,2.3-.56,2.3-2.06a1.78,1.78,0,0,0-2-2H95Z"/>
      <path class="cls-1" d="M102.11,62.49a2.87,2.87,0,0,1-1,.2c-1.19,0-1.63-.8-1.63-1.88s.6-1.87,1.51-1.87,1.43.81,1.43,1.78v.22H99.92a1.21,1.21,0,0,0,1.18,1.37,2.22,2.22,0,0,0,1-.27Zm-.22-1.93c0-.63-.25-1.24-.91-1.24a1.17,1.17,0,0,0-1.06,1.24Z"/>
      <path class="cls-1" d="M103.72,59h.45l0,.66h0a1.25,1.25,0,0,1,1.15-.74c1,0,1.48.78,1.48,1.87s-.5,1.88-1.48,1.88a1.11,1.11,0,0,1-1.12-.7h0v2.09h-.45Zm1.51.3c-.79,0-1.06.84-1.06,1.49s.27,1.5,1.06,1.5,1.06-.8,1.06-1.5S106.07,59.32,105.23,59.32Z"/>
      <path class="cls-1" d="M110.28,62h0a1.27,1.27,0,0,1-1.14.66c-1,0-1.18-.69-1.18-1,0-1.2,1.28-1.26,2.21-1.26h.08v-.18c0-.61-.22-.92-.81-.92a1.91,1.91,0,0,0-1.06.29v-.43a2.93,2.93,0,0,1,1.06-.24c.88,0,1.25.4,1.25,1.33v1.58a4.59,4.59,0,0,0,0,.76h-.44Zm0-1.23h-.13c-.76,0-1.68.08-1.68.86,0,.47.34.65.75.65,1,0,1.06-.91,1.06-1.29Z"/>
      <path class="cls-1" d="M112.29,59.82a6,6,0,0,0,0-.8h.44v.69h0a1.05,1.05,0,0,1,.92-.77,1.46,1.46,0,0,1,.31,0v.46a1.19,1.19,0,0,0-.33,0c-.7,0-.89.79-.89,1.43v1.78h-.44Z"/>
      <path class="cls-1" d="M116.72,59.4h-.81v2.32c0,.32.12.59.47.59a1,1,0,0,0,.41-.08l0,.36a1.62,1.62,0,0,1-.54.1c-.79,0-.82-.54-.82-1.19V59.4h-.7V59h.7v-.86l.45-.16v1h.81Z"/>
      <path class="cls-1" d="M120.47,62.49a2.87,2.87,0,0,1-1,.2c-1.19,0-1.63-.8-1.63-1.88s.6-1.87,1.51-1.87,1.43.81,1.43,1.78v.22h-2.46a1.21,1.21,0,0,0,1.18,1.37,2.22,2.22,0,0,0,1-.27Zm-.22-1.93c0-.63-.25-1.24-.91-1.24a1.17,1.17,0,0,0-1.06,1.24Z"/>
      <path class="cls-1" d="M126.46,62.61V60.22c0-.5-.19-.9-.76-.9s-1,.41-1,1.3v2h-.45V60.22c0-.5-.19-.9-.76-.9s-1,.41-1,1.3v2h-.44V59.86a8,8,0,0,0,0-.84h.43v.61h0a1.13,1.13,0,0,1,1.12-.69.9.9,0,0,1,1,.76h0a1.2,1.2,0,0,1,1.15-.76,1.09,1.09,0,0,1,1.13,1.2v2.47Z"/>
      <path class="cls-1" d="M130.94,62.49a2.87,2.87,0,0,1-1,.2c-1.19,0-1.64-.8-1.64-1.88s.61-1.87,1.52-1.87,1.42.81,1.42,1.78v.22h-2.45a1.21,1.21,0,0,0,1.18,1.37,2.29,2.29,0,0,0,1-.27Zm-.22-1.93c0-.63-.26-1.24-.92-1.24a1.17,1.17,0,0,0-1.05,1.24Z"/>
      <path class="cls-1" d="M132.59,59.86c0-.27,0-.55,0-.84H133v.64h0a1.14,1.14,0,0,1,1.16-.72c.88,0,1.22.59,1.22,1.37v2.3H135V60.43c0-.68-.24-1.11-.85-1.11-.81,0-1.06.71-1.06,1.3v2h-.45Z"/>
      <path class="cls-1" d="M138.6,59.4h-.82v2.32c0,.32.12.59.48.59a1,1,0,0,0,.41-.08l0,.36a1.74,1.74,0,0,1-.55.1c-.78,0-.81-.54-.81-1.19V59.4h-.7V59h.7v-.86l.44-.16v1h.82Z"/>
      <path class="cls-1" d="M145.28,62.61h-.44V62h0a1.16,1.16,0,0,1-1.12.65c-1,0-1.48-.81-1.48-1.88s.42-1.87,1.48-1.87a1.22,1.22,0,0,1,1.12.69h0v-2.3h.44Zm-1.5-.3c.79,0,1.06-.84,1.06-1.5s-.27-1.49-1.06-1.49-1.06.8-1.06,1.49S142.94,62.31,143.78,62.31Z"/>
      <path class="cls-1" d="M149.3,62.49a2.87,2.87,0,0,1-1,.2c-1.18,0-1.63-.8-1.63-1.88s.61-1.87,1.51-1.87,1.43.81,1.43,1.78v.22h-2.45a1.21,1.21,0,0,0,1.18,1.37,2.21,2.21,0,0,0,1-.27Zm-.21-1.93c0-.63-.26-1.24-.92-1.24a1.17,1.17,0,0,0-1,1.24Z"/>
      <path class="cls-1" d="M150.69,62.09a2.16,2.16,0,0,0,.93.22c.43,0,.8-.23.8-.64,0-.85-1.72-.72-1.72-1.76,0-.71.57-1,1.16-1a2.84,2.84,0,0,1,.89.16l0,.39a2.05,2.05,0,0,0-.8-.17c-.45,0-.77.14-.77.59,0,.67,1.76.59,1.76,1.76,0,.76-.71,1-1.25,1a2.6,2.6,0,0,1-1-.17Z"/>
      <path class="cls-1" d="M156.73,57.7h.49v4.91h-.49Z"/>
      <path class="cls-1" d="M158.86,59.86a8,8,0,0,0,0-.84h.43v.64h0a1.15,1.15,0,0,1,1.16-.72c.89,0,1.22.59,1.22,1.37v2.3h-.44V60.43c0-.68-.24-1.11-.85-1.11-.81,0-1.06.71-1.06,1.3v2h-.44Z"/>
      <path class="cls-1" d="M163.31,59.86a8,8,0,0,0,0-.84h.43v.64h0a1.14,1.14,0,0,1,1.16-.72c.88,0,1.22.59,1.22,1.37v2.3h-.44V60.43c0-.68-.24-1.11-.85-1.11-.81,0-1.06.71-1.06,1.3v2h-.45Z"/>
      <path class="cls-1" d="M170.17,62.49a2.83,2.83,0,0,1-1,.2c-1.18,0-1.63-.8-1.63-1.88s.61-1.87,1.51-1.87,1.43.81,1.43,1.78v.22H168a1.21,1.21,0,0,0,1.18,1.37,2.21,2.21,0,0,0,1-.27ZM170,60.56c0-.63-.26-1.24-.92-1.24a1.17,1.17,0,0,0-1,1.24Z"/>
      <path class="cls-1" d="M171.83,59.82a6,6,0,0,0,0-.8h.45v.69h0a1.07,1.07,0,0,1,.92-.77,1.3,1.3,0,0,1,.31,0v.46a1.08,1.08,0,0,0-.32,0c-.7,0-.89.79-.89,1.43v1.78h-.45Z"/>
      <path class="cls-1" d="M174.85,59.86a8,8,0,0,0,0-.84h.43v.64h0a1.15,1.15,0,0,1,1.16-.72c.89,0,1.23.59,1.23,1.37v2.3h-.45V60.43c0-.68-.24-1.11-.85-1.11-.81,0-1.06.71-1.06,1.3v2h-.44Z"/>
      <path class="cls-1" d="M181.86,57.7h2.4v.42h-1.92v1.75h1.82v.42h-1.82v1.89h2v.43h-2.48Z"/>
      <path class="cls-1" d="M185.88,57.7h1.21a2.2,2.2,0,0,1,2.46,2.45c0,1.77-1.19,2.46-2.82,2.46h-.85Zm.48,4.48h.4c1.39,0,2.3-.56,2.3-2.06a1.78,1.78,0,0,0-2-2h-.71Z"/>
      <path class="cls-1" d="M191.09,57.7h.49v4.91h-.49Z"/>
      <path class="cls-1" d="M36.49,67.4H38.2c.64,0,1.58.18,1.58,1.25a1.09,1.09,0,0,1-1,1.1h0a1.14,1.14,0,0,1,1.12,1.12c0,1.24-1.11,1.42-1.73,1.42H36.49Zm1,2h.4c.42,0,.93-.09.93-.6s-.5-.61-.95-.61h-.38Zm0,2.15h.47c.45,0,1-.11,1-.68s-.52-.74-1-.74h-.47Z"/>
      <path class="cls-1" d="M44.13,72.3h-.89v-.49h0a1.51,1.51,0,0,1-1.19.58c-.85,0-1.23-.61-1.23-1.42V68.68h1v1.94c0,.44,0,1,.61,1s.83-.74.83-1.21V68.68h.94Z"/>
      <path class="cls-1" d="M45.2,68.68h.9v.49h0a1.37,1.37,0,0,1,1.19-.57c.86,0,1.23.6,1.23,1.42V72.3h-.94V70.37c0-.44,0-1-.61-1s-.83.74-.83,1.2V72.3H45.2Z"/>
      <path class="cls-1" d="M52,71.89h0a1.33,1.33,0,0,1-1.11.5c-1.11,0-1.52-.92-1.52-1.91s.41-1.88,1.52-1.88a1.29,1.29,0,0,1,1.08.5h0V67h.94V72.3H52Zm-.87-.23c.63,0,.83-.67.83-1.18s-.24-1.15-.84-1.15-.78.67-.78,1.15S50.53,71.66,51.15,71.66Z"/>
      <path class="cls-1" d="M56.91,72.1a2.51,2.51,0,0,1-1.25.29,1.72,1.72,0,0,1-1.89-1.88,1.69,1.69,0,0,1,1.68-1.91c1.35,0,1.73.92,1.73,2.18H54.67a1,1,0,0,0,1,.92,2.42,2.42,0,0,0,1.2-.37Zm-.63-2c0-.46-.24-.85-.77-.85a.82.82,0,0,0-.84.85Z"/>
      <path class="cls-1" d="M60.17,69.44a2.28,2.28,0,0,0-.84-.15c-.26,0-.56.09-.56.4,0,.57,1.64.21,1.64,1.52,0,.84-.75,1.18-1.52,1.18a4.33,4.33,0,0,1-1.07-.16l.06-.77a2,2,0,0,0,.93.24c.24,0,.61-.09.61-.45,0-.71-1.63-.22-1.63-1.53,0-.78.68-1.12,1.42-1.12a4.46,4.46,0,0,1,1,.13Z"/>
      <path class="cls-1" d="M61.41,68.87a3.17,3.17,0,0,1,1.26-.27c1.1,0,1.56.45,1.56,1.52v.47c0,.36,0,.64,0,.9s0,.53,0,.81h-.83c0-.19,0-.43,0-.54h0a1.3,1.3,0,0,1-1.12.63A1.16,1.16,0,0,1,61,71.31a1.05,1.05,0,0,1,.62-1,2.81,2.81,0,0,1,1.22-.21h.52c0-.59-.26-.78-.82-.78a1.85,1.85,0,0,0-1.11.39Zm1.1,2.83a.8.8,0,0,0,.66-.33,1.15,1.15,0,0,0,.2-.74H63c-.42,0-1.05.07-1.05.62C61.91,71.56,62.17,71.7,62.51,71.7Z"/>
      <path class="cls-1" d="M65.25,68.68h.87v.51h0a1.27,1.27,0,0,1,1.07-.59,1.05,1.05,0,0,1,1.07.64,1.24,1.24,0,0,1,1.13-.64c.9,0,1.15.61,1.15,1.42V72.3h-.94V70.14c0-.33,0-.81-.54-.81s-.71.74-.71,1.21V72.3h-.94V70.14c0-.33,0-.81-.54-.81s-.7.74-.7,1.21V72.3h-.94Z"/>
      <path class="cls-1" d="M71.92,69.37h-.69v-.69h.69V68l1-.3v1h.83v.69h-.83v1.69c0,.31.08.6.44.6a.88.88,0,0,0,.43-.1l0,.74a2.26,2.26,0,0,1-.69.09,1.07,1.07,0,0,1-1.15-1.18Z"/>
      <path class="cls-1" d="M76.86,69.37h-.7v-.69h.7v-.5A1.1,1.1,0,0,1,78,67a3.49,3.49,0,0,1,.69.07l-.08.78a.71.71,0,0,0-.41-.12c-.31,0-.41.27-.41.55v.45h.82v.69H77.8V72.3h-.94Z"/>
      <path class="cls-1" d="M82.68,72.3h-.89v-.49h0a1.51,1.51,0,0,1-1.19.58c-.85,0-1.23-.61-1.23-1.42V68.68h1v1.94c0,.44,0,1,.61,1s.83-.74.83-1.21V68.68h.94ZM79.89,68v-.81h.81V68Zm2.26-.81V68h-.81v-.81Z"/>
      <path class="cls-1" d="M83.77,68.68h.84v.82h0a1.1,1.1,0,0,1,1-.9.89.89,0,0,1,.28,0v.94a1.1,1.1,0,0,0-.42-.07c-.76,0-.76,1-.76,1.47V72.3h-1Z"/>
      <path class="cls-1" d="M88.74,67.4h1v2.1l1.77-2.1H92.7l-2,2.31,2.11,2.59H91.5L89.74,70h0V72.3h-1Z"/>
      <path class="cls-1" d="M96.77,72.3h-.89v-.49h0a1.53,1.53,0,0,1-1.19.58c-.86,0-1.23-.61-1.23-1.42V68.68h.94v1.94c0,.44,0,1,.61,1s.83-.74.83-1.21V68.68h.94Z"/>
      <path class="cls-1" d="M97.87,67h.94V72.3h-.94Z"/>
      <path class="cls-1" d="M100.22,69.37h-.7v-.69h.7V68l.94-.3v1H102v.69h-.84v1.69c0,.31.08.6.44.6a.88.88,0,0,0,.43-.1l0,.74a2.38,2.38,0,0,1-.7.09,1.06,1.06,0,0,1-1.14-1.18Z"/>
      <path class="cls-1" d="M106.07,72.3h-.89v-.49h0a1.53,1.53,0,0,1-1.19.58c-.86,0-1.23-.61-1.23-1.42V68.68h.94v1.94c0,.44,0,1,.61,1s.83-.74.83-1.21V68.68h.94Z"/>
      <path class="cls-1" d="M107.17,68.68H108v.82h0a1.11,1.11,0,0,1,1-.9,1,1,0,0,1,.29,0v.94a1.14,1.14,0,0,0-.42-.07c-.77,0-.77,1-.77,1.47V72.3h-.94Z"/>
      <path class="cls-1" d="M112.13,67.4h1.72c.63,0,1.58.18,1.58,1.25a1.1,1.1,0,0,1-1,1.1h0a1.15,1.15,0,0,1,1.13,1.12c0,1.24-1.11,1.42-1.73,1.42h-1.72Zm1,2h.4c.41,0,.92-.09.92-.6s-.49-.61-.94-.61h-.38Zm0,2.15h.46c.46,0,1-.11,1-.68s-.52-.74-1-.74h-.46Z"/>
      <path class="cls-1" d="M117.94,67.4h1.11L121,72.3h-1.09l-.42-1.12h-2l-.42,1.12h-1Zm.54,1h0l-.71,2h1.43Z"/>
      <path class="cls-1" d="M121.71,67.4h1v2.1l1.77-2.1h1.21l-2,2.31,2.1,2.59h-1.28L122.71,70h0V72.3h-1Z"/>
    </g>
    <path class="cls-1" d="M28.34,9A26.81,26.81,0,0,0,18.4,7.38h0A26.81,26.81,0,0,0,8.46,9s-.34,7.21,1.07,11.28a15.08,15.08,0,0,0,8.87,9.18h0a15.08,15.08,0,0,0,8.87-9.18C28.68,16.22,28.34,9,28.34,9ZM25,19.19H20.37v4.64h-4V19.19H11.77v-4H16.4V10.59h4v4.63H25Z"/>
  </g>
</svg>
