<svg id="Ebene_1" data-name="Ebene 1" xmlns="http://www.w3.org/2000/svg" viewBox="0 0 200 80">
  <defs>
    <style>
      .cls-1 {
        fill: #4d4d4c;
      }
    </style>
  </defs>
  <g>
    <path class="cls-1" d="M56,34.43H52.56a4.61,4.61,0,0,0-4.83,4.81v.54h4.58V35.93h3.94v3.85h4.59v-.54A4.61,4.61,0,0,0,56,34.43m.23,12.91H52.34V43.43H47.73V44a4.6,4.6,0,0,0,4.83,4.8H56A4.6,4.6,0,0,0,60.84,44v-.6H56.25Z"/>
    <path class="cls-1" d="M27.09,34.35H23.63a4.69,4.69,0,0,0-4.91,4.89V54.4h3.2V48.59s.14.07.14.07a5.49,5.49,0,0,0,1.57.25h3.46A4.68,4.68,0,0,0,32,44V39.24a4.69,4.69,0,0,0-4.9-4.89m0,11.38H23.63A1.5,1.5,0,0,1,21.92,44V39.24a1.5,1.5,0,0,1,1.71-1.7h3.46a1.52,1.52,0,0,1,1.7,1.7V44a1.52,1.52,0,0,1-1.7,1.7"/>
    <path class="cls-1" d="M73.83,34.35H70.37a5.16,5.16,0,0,0-1.56.28l-.17,0V29.13H65.49l0,19.78h3.17V39.24a1.54,1.54,0,0,1,1.73-1.7h3.46a1.5,1.5,0,0,1,1.71,1.7v9.67h3.19V39.24a4.68,4.68,0,0,0-4.9-4.89"/>
    <path class="cls-1" d="M163.62,29.15h-3.17V32.5h3.18Zm-3.17,19.76h3.17V34.36h-3.18Z"/>
    <path class="cls-1" d="M155.49,37.54V34.36h-4.35v-5.2H148v5.21h-2.8v3.19H148V44a4.63,4.63,0,0,0,4.9,4.88h2.59V45.75h-2.59A1.51,1.51,0,0,1,151.14,44V37.54Z"/>
    <path class="cls-1" d="M106,45.75a1.51,1.51,0,0,1-1.7-1.72V29.17h-3.17V44A4.61,4.61,0,0,0,106,48.91h2.63V45.75Z"/>
    <path class="cls-1" d="M41,34.37a4.63,4.63,0,0,0-4.9,4.88v9.66h3.2V39.25a1.49,1.49,0,0,1,1.7-1.7h3.84V34.37Z"/>
    <path class="cls-1" d="M121.8,34.37l-1.43,5-1.52,5.47c-.26.87-.28.94-.91.94s-.66-.06-.86-.77l-3-10.68h-3.33L114,45.76c.69,2.4,1.73,3.25,4,3.25s3.28-.87,4-3.31l3.2-11.33Z"/>
    <path class="cls-1" d="M91.68,34.35H88.22a4.68,4.68,0,0,0-4.9,4.89V44a4.67,4.67,0,0,0,4.9,4.88h7.61V45.75H88.07A1.54,1.54,0,0,1,86.37,44V43.2h8A2.22,2.22,0,0,0,96.58,41V39.24a4.68,4.68,0,0,0-4.9-4.89m-3.46,3h3.46a1.67,1.67,0,0,1,1.89,1.88v1H86.34v-1a1.69,1.69,0,0,1,1.88-1.88"/>
    <path class="cls-1" d="M136.77,34.35h-3.46a4.68,4.68,0,0,0-4.9,4.89V44a4.67,4.67,0,0,0,4.9,4.88h7.61V45.75h-7.75A1.54,1.54,0,0,1,131.46,44v-.85h8A2.21,2.21,0,0,0,141.68,41V39.24a4.69,4.69,0,0,0-4.91-4.89m-5.34,5.18a1.91,1.91,0,0,1,1.88-2.17h3.46a1.67,1.67,0,0,1,1.89,1.88v1h-7.23Z"/>
    <path class="cls-1" d="M176.44,34.35H170v3.19h6.42a1.41,1.41,0,0,1,1.61,1.34v.22c0,.19-.18.33-.81.43l-4.86.5c-3.83.41-4.4,2.95-4.4,4.44,0,3.07,2.46,4.44,4.9,4.44h4.31a3.9,3.9,0,0,0,4.09-4.07V39.23a4.65,4.65,0,0,0-4.84-4.88m.75,11.56h-4.31c-1.69,0-1.88-.82-1.88-1.44,0-1,.31-1.31,1.67-1.44l5-.53.65-.15v2.49c0,.75-.35,1.07-1.1,1.07"/>
  </g>
</svg>
