<svg id="Ebene_1" data-name="Ebene 1" xmlns="http://www.w3.org/2000/svg" viewBox="0 0 200 80">
  <defs>
    <style>
      .cls-1 {
        fill: #4d4d4c;
      }
    </style>
  </defs>
  <g>
    <rect class="cls-1" x="70.71" y="48.36" width="82.64" height="0.57"/>
    <polygon class="cls-1" points="57.26 11.96 57.63 11.81 57.71 11.81 57.26 11.96"/>
    <polygon class="cls-1" points="56.48 12.28 56.62 12.17 56.67 12.17 56.48 12.28"/>
    <polygon class="cls-1" points="56.06 12.43 56.11 12.38 56.14 12.38 56.06 12.43"/>
    <path class="cls-1" d="M50.91,32.23c-1-1.77-.56-3.84,0-5.65a21,21,0,0,1,2.42-4.71,17.24,17.24,0,0,1,3.15-3.24A12.7,12.7,0,0,1,58.75,17c.45-.26.93-.21,1.38-.42.51,0,1.07.21,1.52-.11.14-.15.27-.34.14-.54-.48-.24-.75-.6-1.34-.63a5.48,5.48,0,0,0-2.69.78A21.48,21.48,0,0,0,49.1,26.4l0,.39L49,26.74c-.14.21,0,.45-.19.63l0,.05.06-.08c.1.08-.08.19-.06.27l-.08.44c-.05,0,0-.16-.1-.1s0,.12-.06.18h.11c0,.47,0,1-.08,1.46-.24-.26,0-.78,0-1l-.14.05c.11,0,.08.23,0,.36a8.26,8.26,0,0,1-.21-3.32,13.49,13.49,0,0,1,2.61-6.07c.43-.47.91-.91,1.33-1.3s.53.15.8.23a1.34,1.34,0,0,0,1.25-.29,1.71,1.71,0,0,0,.43-1.72c0-.37,0-.66,0-1h0c-.4-.83.85-.78,1.23-1.3.16-.06.32-.27.56-.27a5.35,5.35,0,0,0,1-.41A11,11,0,0,1,59.39,13l-.06,0s.06,0,.11,0l0,0v0l.1-.05,0,.05a2.73,2.73,0,0,1,1.6,0l-.59,0v0a3.16,3.16,0,0,0,.69,0c.62.29,1.42.18,1.87.81l0,.16a5.62,5.62,0,0,1,2.15,2c.69.58.8,1.41,1.23,2.17-.08.08,0,.13.08.21-.14.47.16.87.16,1.33a13.44,13.44,0,0,1-.08,3.69,8.11,8.11,0,0,1-1.2,3.32,9.83,9.83,0,0,1-1.15,1.84A13.92,13.92,0,0,1,55,33.8c-1.57.08-3.33-.13-4.05-1.57m.4-18.91c.16-.07.37-.21.51-.1a2.26,2.26,0,0,1,.32,1.12,33.28,33.28,0,0,0-3.65,3.85,25.94,25.94,0,0,1,2.82-4.87m8.48,23.36c-.14-.08-.24.16-.32,0A13.89,13.89,0,0,1,54,35.16c4-.21,7.41-2.22,10.29-4.76a19.77,19.77,0,0,0,1.94-2v0c.16-.08.06-.37.29-.39.19-.37.48-.58.67-1s.67-.68.56-1.12c.21-.13.19-.39.29-.6,0-.4.46-.71.32-1.16.14-.28,0-.7.27-.86-.08-.13.1-.26-.06-.39.22-.39,0-.86.19-1.2a1,1,0,0,1,0-.66c0-.1.11-.31-.05-.39l.05-.05s0,0,.06,0,0-.13-.08-.21l.07-.1a6.36,6.36,0,0,0-.36-1.65c-.11-.34-.24-.78-.35-1.09,0-.06-.24-.14-.08-.24A8.71,8.71,0,0,0,66.66,15c0-.23-.29-.1-.21-.31a11,11,0,0,0-1.31-1.34,8.38,8.38,0,0,0-2.74-1.22,15.22,15.22,0,0,0-2.06-.81l.22.13c-.19.1-.35-.11-.38.1-.34-.05-.63-.05-1-.08v-.05c-.4.24-1,.13-1.41.37a2.65,2.65,0,0,1,.67-.13c0,.05,0,.07-.06.1s0-.08-.08,0,0,0,0,.08c-.35-.11-.37.29-.75.15-.74.32-1.52.6-2.37,1-.27.13-.64.21-.85.34a8.58,8.58,0,0,0-.88-1.49,4.09,4.09,0,0,0-2.72-1.44c-.08.16-.32.05-.48.08-.51.47-1,1-1.52,1.56a23.58,23.58,0,0,0-3.14,5.68c0,.47-.43.76-.46,1.18-.13.26-.1.39-.24.63-.13.65-.45,1.25-.66,2l0,.05c-.16.1,0,.13,0,.26s-.19.37-.22.47l0,0v.21H43.9v0c0,.05-.1.1,0,.18l-.13.05c0,.06-.05.21.08.21l-.24.87-.08.05c-.45,1.39-.93,2.8-1.49,4.13,0,0,0,0,0-.05l-.1.08L42,28l-.13.28,0-.08-.08,0,.05,0-.1.23c.08.42-.3.66-.51,1.08l.24-.13c-.16.15-.08.52-.32.54.05.06-.11.08,0,.11a.35.35,0,0,0-.16.28c-.21,0-.16.29-.14.4-.21-.06,0,.13-.13.18v0l-.29.61c-.24,0,0,.31-.27.36l.08,0c-.05,0-.05.21-.16.13-.19.32-.4.71-.56,1.05s-.4.83-1,.65c-.05-.18-.21,0-.29-.13a1.25,1.25,0,0,0-1-.37c-.59-.13-.54-.94-.62-1.41.08-.68-.24-1.33-.13-2.07-.13,0,0-.12,0-.18-.18-.13.08-.29-.05-.47a23.38,23.38,0,0,0,0-3.84,8,8,0,0,1-.22-1.91c-.05-1.36-.29-3-.48-4.47.06-.63-.29-1.34,0-2a.35.35,0,0,0,.13-.37c0-.16-.24-.13-.21-.29a.91.91,0,0,0-.74,0,1.88,1.88,0,0,0-1,1.78,31.19,31.19,0,0,0,.64,5.1c.69,3.4.21,7-.16,10.3.21.34-.11.66.26.89-.1.19.22.34.16.5,0,0-.08,0-.08,0-.18.21.3.24.4.37a9.38,9.38,0,0,0,1.89,1.46c.35.32.86,0,1.28.11.56-.39,1.28,0,1.84-.45.11-.39.64-.23.69-.68.67-.49.88-1.25,1.5-1.91.61-1.25,1.38-2.48,1.89-3.81a14.22,14.22,0,0,0,.69-1.86c.27-.39.37-.86.61-1.28.11-.08-.1-.21.08-.27a11.67,11.67,0,0,0,2.64,6.23A13.15,13.15,0,0,0,52,35.82a22,22,0,0,0,6.61,1.85c.32.06.85-.05,1.17,0l0,0a22.9,22.9,0,0,0,3.62-.47A.5.5,0,0,1,64,37.1c.56-.21,1.2-.39,1.76-.63,1.3-.29,1.94-1.39,3.09-1.88v-.11a16.8,16.8,0,0,1-9,2.2m8.95-16.4h0a0,0,0,0,1,0,0Z"/>
    <rect class="cls-1" x="43.85" y="22.61" width="0.03" height="0.13"/>
    <rect class="cls-1" x="68.74" y="22.61" width="0.03" height="0.05"/>
    <path class="cls-1" d="M43.67,23.08l0,.13Z"/>
    <path class="cls-1" d="M43,25l-.08.26Z"/>
    <path class="cls-1" d="M42.87,25.46l0,.1Z"/>
    <path class="cls-1" d="M42.41,26.79l0,.11Z"/>
    <path class="cls-1" d="M42.33,27l-.08.26Z"/>
    <polygon class="cls-1" points="42.15 27.58 42.17 27.45 42.15 27.55 42.15 27.58"/>
    <path class="cls-1" d="M48.81,27.68c-.08-.05,0-.1,0-.18Z"/>
    <path class="cls-1" d="M48.78,27.79c-.1,0,.06.16-.1.1,0,0,0-.13.1-.1"/>
    <polygon class="cls-1" points="48.59 28.52 48.67 28.28 48.67 28.47 48.59 28.52"/>
    <path class="cls-1" d="M41.88,28.28l-.05.24Z"/>
    <polygon class="cls-1" points="34.55 34.72 34.47 34.64 34.53 34.64 34.55 34.72"/>
    <polygon class="cls-1" points="74.57 15.26 78.58 15.26 76.47 24.94 76.51 24.94 80.32 20.21 84.83 20.21 80.1 25.64 83.07 31.47 78.67 31.47 76.31 25.89 76.27 25.89 75.06 31.47 71.03 31.47 74.57 15.26"/>
    <path class="cls-1" d="M98.37,28.53c-.2,1-.38,1.92-.49,2.94H94.21l.31-1.84h0a5.44,5.44,0,0,1-4.42,2.1c-2.32,0-3.57-1.69-3.57-3.89a10.34,10.34,0,0,1,.31-2.38l1-5.25h4.1l-1.1,5.28a8.84,8.84,0,0,0-.26,1.7c0,.67.43,1.34,1.54,1.3,1.67,0,2.66-1.43,2.95-3.09l1.12-5.19h4Z"/>
    <polygon class="cls-1" points="105.61 15.26 109.61 15.26 106.18 31.47 102.17 31.47 105.61 15.26"/>
    <path class="cls-1" d="M111.84,20.21h2.26l.55-2.42,4.19-1.1-.8,3.52h2.73l-.48,2.73h-2.88l-.69,3.13a10.86,10.86,0,0,0-.33,1.94,1.2,1.2,0,0,0,1.3,1.26,4,4,0,0,0,1.28-.33l-.44,2.57a16.3,16.3,0,0,1-2.47.22c-2,0-3.63-1-3.63-3.33a10.71,10.71,0,0,1,.35-2.31l.69-3.15h-2.12Z"/>
    <path class="cls-1" d="M134.05,28.53c-.2,1-.38,1.92-.49,2.94h-3.67l.3-1.84h0a5.46,5.46,0,0,1-4.42,2.1c-2.32,0-3.57-1.69-3.57-3.89a10.34,10.34,0,0,1,.31-2.38l1.06-5.25h4.09l-1.1,5.28a8.86,8.86,0,0,0-.27,1.7c0,.67.44,1.34,1.55,1.3,1.67,0,2.66-1.43,2.94-3.09l1.13-5.19h4Z"/>
    <path class="cls-1" d="M143.38,20.21l-.44,2.31h0A4.21,4.21,0,0,1,146.53,20a4.69,4.69,0,0,1,1.67.28l-.91,3.44a2.75,2.75,0,0,0-1.82-.48c-1.67,0-2.67,1.43-2.95,3.09l-1.12,5.19h-4l1.78-8.32c.19-1,.37-1.92.48-2.94Z"/>
    <polygon class="cls-1" points="71.92 39.32 72.48 39.32 71.75 42.62 73.35 42.62 73.25 43.09 71.09 43.09 71.92 39.32"/>
    <path class="cls-1" d="M75.2,42.75a1.21,1.21,0,0,0,1-1.27.73.73,0,0,0-.72-.8c-.68,0-1,.72-1,1.29a.7.7,0,0,0,.73.78m.33-2.48a1.14,1.14,0,0,1,1.24,1.21,1.54,1.54,0,0,1-1.57,1.68,1.14,1.14,0,0,1-1.28-1.23,1.55,1.55,0,0,1,1.61-1.66"/>
    <path class="cls-1" d="M77.47,40.34h.62l.14-.64.56-.19-.18.83h.77l-.08.4h-.78l-.25,1.19a3.79,3.79,0,0,0-.09.52c0,.2.11.3.38.3a1.1,1.1,0,0,0,.36-.07l-.08.42a1.9,1.9,0,0,1-.5.06.6.6,0,0,1-.67-.61,4.25,4.25,0,0,1,.09-.65L78,40.74h-.62Z"/>
    <path class="cls-1" d="M79.64,40.34h.62l.14-.64.56-.19-.18.83h.77l-.08.4h-.78l-.26,1.19c0,.13-.08.42-.08.52s.11.3.38.3a1.1,1.1,0,0,0,.36-.07L81,43.1a1.9,1.9,0,0,1-.5.06.61.61,0,0,1-.68-.61,4.22,4.22,0,0,1,.1-.65l.25-1.16h-.62Z"/>
    <path class="cls-1" d="M83.72,41.45a1.62,1.62,0,0,0,0-.21.53.53,0,0,0-.59-.56,1,1,0,0,0-.86.77ZM83.78,43a3.33,3.33,0,0,1-.83.12,1.13,1.13,0,0,1-1.29-1.25,1.58,1.58,0,0,1,1.54-1.64,1,1,0,0,1,1,1,2.67,2.67,0,0,1,0,.51h-2a1,1,0,0,0,0,.17c0,.58.36.75.86.75a2.3,2.3,0,0,0,.8-.17Z"/>
    <path class="cls-1" d="M85.17,40.76a3.51,3.51,0,0,0,.08-.42h.48l-.08.43h0a1.08,1.08,0,0,1,1-.5.68.68,0,0,1,.24,0l-.11.45a.81.81,0,0,0-.22-.06c-.64,0-1,.69-1,1l-.29,1.35h-.52Z"/>
    <path class="cls-1" d="M88.17,39.72h-.58l.12-.58h.58Zm-.69.62H88l-.6,2.75h-.52Z"/>
    <path class="cls-1" d="M90.54,41.45a1.62,1.62,0,0,0,0-.21.53.53,0,0,0-.59-.56,1,1,0,0,0-.86.77ZM90.6,43a3.33,3.33,0,0,1-.83.12,1.13,1.13,0,0,1-1.29-1.25A1.58,1.58,0,0,1,90,40.27a1,1,0,0,1,1.06,1,2.67,2.67,0,0,1,0,.51H89A1,1,0,0,0,89,42c0,.58.36.75.86.75a2.3,2.3,0,0,0,.8-.17Z"/>
    <path class="cls-1" d="M92.31,40.74h-.67l.07-.4h.69l.07-.28c.1-.45.3-1.09,1.11-1.09A1.39,1.39,0,0,1,94,39l-.11.41a.71.71,0,0,0-.24-.06c-.46,0-.58.37-.65.7l-.06.26h.75l-.09.4h-.75l-.52,2.35h-.52Z"/>
    <path class="cls-1" d="M95,42.75a1.21,1.21,0,0,0,1-1.27.72.72,0,0,0-.71-.8c-.69,0-1,.72-1,1.29a.69.69,0,0,0,.72.78m.33-2.48a1.15,1.15,0,0,1,1.25,1.21A1.55,1.55,0,0,1,95,43.16a1.14,1.14,0,0,1-1.27-1.23,1.54,1.54,0,0,1,1.6-1.66"/>
    <path class="cls-1" d="M97.55,40.76a3.51,3.51,0,0,0,.08-.42h.49l-.09.43h0a1.11,1.11,0,0,1,1-.5.83.83,0,0,1,.93.87,2.84,2.84,0,0,1-.06.5l-.31,1.45H99l.35-1.65c0-.09,0-.2,0-.25a.48.48,0,0,0-.51-.51c-.64,0-1,.68-1,1l-.3,1.39h-.52Z"/>
    <path class="cls-1" d="M101.76,42.75c.65,0,.94-.8.94-1.32a.68.68,0,0,0-.69-.75c-.62,0-.94.76-.94,1.28s.21.79.69.79m1.32-.57c-.06.31-.12.61-.16.91h-.48c0-.13,0-.28.09-.42h0a1,1,0,0,1-1,.49,1.05,1.05,0,0,1-1-1.16A1.57,1.57,0,0,1,102,40.27a.93.93,0,0,1,.9.52h0l.37-1.75h.52Z"/>
    <path class="cls-1" d="M105.65,40.82a1.45,1.45,0,0,0-.57-.14c-.22,0-.52.06-.52.34,0,.47,1,.49,1,1.25a1,1,0,0,1-1.06.89,2,2,0,0,1-.82-.13l.09-.44a1.83,1.83,0,0,0,.65.16c.28,0,.59-.12.59-.43,0-.47-1-.54-1-1.24s.6-.81,1.06-.81a2,2,0,0,1,.73.15Z"/>
    <polygon class="cls-1" points="108.5 39.32 109.05 39.32 108.68 40.98 108.69 40.99 110.54 39.32 111.26 39.32 109.19 41.18 110.72 43.09 110.03 43.09 108.61 41.29 108.23 43.09 107.67 43.09 108.5 39.32"/>
    <path class="cls-1" d="M112.76,41.77c-.39,0-1,.1-1,.61,0,.24.22.37.47.37.52,0,.85-.52.91-1Zm-.87-1.36a2.86,2.86,0,0,1,.78-.14c.57,0,1.11.22,1.11.88a2.18,2.18,0,0,1,0,.43c-.1.51-.22,1-.29,1.51H113l.1-.46h0a1,1,0,0,1-.91.53c-.48,0-.9-.25-.9-.76,0-.79.72-1,1.67-1l.37,0a1.13,1.13,0,0,0,0-.18c0-.4-.27-.55-.65-.55a1.9,1.9,0,0,0-.86.23Z"/>
    <path class="cls-1" d="M114.86,40.76a3.51,3.51,0,0,0,.08-.42h.48l-.09.43h0a1.08,1.08,0,0,1,1-.5.83.83,0,0,1,.94.87,2.15,2.15,0,0,1-.07.5l-.3,1.45h-.52l.35-1.65c0-.09,0-.2,0-.25a.48.48,0,0,0-.51-.51c-.64,0-.95.68-1,1l-.3,1.39h-.52Z"/>
    <path class="cls-1" d="M118,40.34h.63l.14-.64.55-.19-.17.83h.77l-.09.4H119l-.26,1.19a3.79,3.79,0,0,0-.09.52c0,.2.12.3.38.3a1.1,1.1,0,0,0,.36-.07l-.07.42a2,2,0,0,1-.51.06.6.6,0,0,1-.67-.61,3.28,3.28,0,0,1,.1-.65l.24-1.16h-.62Z"/>
    <path class="cls-1" d="M121.27,42.75a1.21,1.21,0,0,0,1-1.27.73.73,0,0,0-.72-.8c-.69,0-1,.72-1,1.29a.69.69,0,0,0,.72.78m.33-2.48a1.14,1.14,0,0,1,1.25,1.21,1.54,1.54,0,0,1-1.57,1.68A1.14,1.14,0,0,1,120,41.93a1.54,1.54,0,0,1,1.6-1.66"/>
    <path class="cls-1" d="M123.82,40.76c0-.12.05-.26.07-.42h.49l-.09.43h0a1.11,1.11,0,0,1,1-.5.83.83,0,0,1,.94.87,2.87,2.87,0,0,1-.07.5l-.31,1.45h-.52l.35-1.65a1.38,1.38,0,0,0,0-.25.48.48,0,0,0-.51-.51c-.64,0-1,.68-1,1l-.29,1.39h-.52Z"/>
    <path class="cls-1" d="M130.73,39.91a1.32,1.32,0,0,0-.7-.18c-.36,0-.76.14-.76.59,0,.63,1.31.64,1.31,1.63a1.22,1.22,0,0,1-1.33,1.21,2.78,2.78,0,0,1-1.07-.22l.18-.5a1.63,1.63,0,0,0,.81.24c.58,0,.83-.36.83-.67,0-.77-1.31-.63-1.31-1.68A1.17,1.17,0,0,1,130,39.25a2.39,2.39,0,0,1,.92.18Z"/>
    <path class="cls-1" d="M132.4,42.75a1.21,1.21,0,0,0,1-1.27.72.72,0,0,0-.71-.8c-.69,0-1,.72-1,1.29a.69.69,0,0,0,.72.78m.33-2.48A1.14,1.14,0,0,1,134,41.48a1.54,1.54,0,0,1-1.56,1.68,1.14,1.14,0,0,1-1.28-1.23,1.54,1.54,0,0,1,1.6-1.66"/>
    <polygon class="cls-1" points="135.37 39.04 135.88 39.04 135 43.09 134.49 43.09 135.37 39.04"/>
    <path class="cls-1" d="M137.35,42.75a1.21,1.21,0,0,0,1-1.27.73.73,0,0,0-.72-.8c-.69,0-1,.72-1,1.29a.69.69,0,0,0,.72.78m.33-2.48a1.14,1.14,0,0,1,1.25,1.21,1.54,1.54,0,0,1-1.57,1.68,1.14,1.14,0,0,1-1.28-1.23,1.54,1.54,0,0,1,1.6-1.66"/>
    <path class="cls-1" d="M139.62,40.34h.63l.14-.64.55-.19-.17.83h.77l-.08.4h-.78l-.26,1.19a3.79,3.79,0,0,0-.09.52c0,.2.11.3.38.3a1.21,1.21,0,0,0,.37-.07l-.08.42a2,2,0,0,1-.51.06.6.6,0,0,1-.67-.61,4.22,4.22,0,0,1,.1-.65l.24-1.16h-.62Z"/>
    <path class="cls-1" d="M142.44,39H143l-.35,1.64h0a1.06,1.06,0,0,1,.89-.41.83.83,0,0,1,.94.87,2.87,2.87,0,0,1-.07.5l-.31,1.45h-.52l.35-1.65a1.38,1.38,0,0,0,0-.25.48.48,0,0,0-.51-.51c-.64,0-1,.68-1,1l-.3,1.39h-.51Z"/>
    <path class="cls-1" d="M147.5,42.67c0,.11-.05.26-.07.42h-.49l.09-.43h0a1.11,1.11,0,0,1-1,.5.83.83,0,0,1-.94-.87,2.87,2.87,0,0,1,.07-.5l.31-1.45H146L145.67,42a1.58,1.58,0,0,0,0,.26.48.48,0,0,0,.51.51c.64,0,1-.68,1-1l.3-1.38H148Z"/>
    <path class="cls-1" d="M148.85,40.76c0-.12.06-.26.08-.42h.48l-.08.43h0a1.09,1.09,0,0,1,1-.5.63.63,0,0,1,.23,0l-.12.45a.62.62,0,0,0-.21-.06c-.64,0-.95.69-1,1l-.29,1.35h-.52Z"/>
    <path class="cls-1" d="M151,40.76c0-.12,0-.26.08-.42h.48l-.08.43h0a1.1,1.1,0,0,1,1-.5.83.83,0,0,1,.93.87,2.84,2.84,0,0,1-.06.5L153,43.09h-.52l.35-1.65c0-.09,0-.2,0-.25a.48.48,0,0,0-.51-.51c-.64,0-1,.68-1,1l-.3,1.39h-.52Z"/>
    <path class="cls-1" d="M142.63,63.23a8.78,8.78,0,0,0,4.27,1.58c.78,0,1.38-.17,1.38-.77s-.45-.75-1.66-1.11c-2-.58-3.91-1.22-3.91-3.41,0-1.68,1.56-3,4.21-3a9,9,0,0,1,3.4.71v2.43a8.73,8.73,0,0,0-3.39-.76c-.83,0-1.19.21-1.19.63s.47.61,1.42.92c2,.64,4.17,1.37,4.17,3.62,0,1.82-1.63,3.13-4.41,3.13A8.23,8.23,0,0,1,142.63,66Zm-6.53-4.48c-1.62,0-2,1.18-2,3.08s.42,3.1,2,3.1,2.05-1.18,2.05-3.1-.42-3.08-2.05-3.08m0,8.42c-3.58,0-4.84-2.17-4.84-5.34s1.26-5.34,4.84-5.34S141,58.66,141,61.83s-1.27,5.34-4.85,5.34m-5.83-2.51V67h-7.19V56.66h2.8v8Zm-17.83-1.43a8.81,8.81,0,0,0,4.27,1.58c.78,0,1.39-.17,1.39-.77s-.45-.75-1.66-1.11c-2-.58-3.91-1.22-3.91-3.41,0-1.68,1.55-3,4.2-3a9.07,9.07,0,0,1,3.41.71v2.43a8.77,8.77,0,0,0-3.39-.76c-.83,0-1.2.21-1.2.63s.47.61,1.42.92c2,.64,4.17,1.37,4.17,3.62,0,1.82-1.63,3.13-4.41,3.13A8.23,8.23,0,0,1,112.44,66Zm-10,0a8.78,8.78,0,0,0,4.27,1.58c.78,0,1.38-.17,1.38-.77s-.45-.75-1.66-1.11c-2-.58-3.91-1.22-3.91-3.41,0-1.68,1.56-3,4.21-3a9,9,0,0,1,3.4.71v2.43a8.73,8.73,0,0,0-3.39-.76c-.83,0-1.19.21-1.19.63s.47.61,1.42.92c2,.64,4.17,1.37,4.17,3.62,0,1.82-1.63,3.13-4.41,3.13A8.17,8.17,0,0,1,102.41,66ZM100.07,67h-2.8V56.66h2.8ZM87.88,58.9h1.69l2,3.41.66-5.65h2.68L93.58,67H91.4l-2.68-4.67L86,67H83.86L82.58,56.66h2.68l.66,5.65Zm-15.4,4.33a8.78,8.78,0,0,0,4.27,1.58c.78,0,1.39-.17,1.39-.77s-.46-.75-1.67-1.11c-2-.58-3.91-1.22-3.91-3.41,0-1.68,1.56-3,4.21-3a9.11,9.11,0,0,1,3.41.71v2.43a8.81,8.81,0,0,0-3.39-.76c-.83,0-1.2.21-1.2.63s.47.61,1.42.92c1.95.64,4.17,1.37,4.17,3.62,0,1.82-1.63,3.13-4.41,3.13A8.23,8.23,0,0,1,72.48,66Zm79.85-2.15V55.83l-1.28-.49a11.27,11.27,0,0,0-4.13-.84,7.07,7.07,0,0,0-4.31,1.29,5,5,0,0,0-1.07,1.09,6.43,6.43,0,0,0-5.44-2.38c-4.35,0-6.84,2.67-6.84,7.33,0,.29,0,.56,0,.83h-1.4v-8h-6.8v.75l-.22-.08a11.22,11.22,0,0,0-4.13-.84,7.07,7.07,0,0,0-4.31,1.29l-.15.12-.17-.07-1.27-.5a11.32,11.32,0,0,0-4.13-.84,7.07,7.07,0,0,0-4.31,1.29l-.32.26V54.67H90.4l-.21,1.76,0,.48H87.31l-.06-.48-.2-1.76H80.32l.06.47a10.91,10.91,0,0,0-3.61-.64,7.07,7.07,0,0,0-4.31,1.29,4.81,4.81,0,0,0-2,3.73v7.57l1,.58a10.36,10.36,0,0,0,5.31,1.5,6.78,6.78,0,0,0,5.11-1.85L82.09,69H87.2l.58-1,.94-1.64,1,1.64.57,1h11.83V68a10,10,0,0,0,4.63,1.13,7.09,7.09,0,0,0,4.73-1.5,10.23,10.23,0,0,0,5.3,1.5A7.5,7.5,0,0,0,121.08,68v1h11.19v-.76a7.49,7.49,0,0,0,3.83.94,6.71,6.71,0,0,0,5-1.82l.55.32a10.36,10.36,0,0,0,5.31,1.5c4.43,0,6.41-2.58,6.41-5.13a4.58,4.58,0,0,0-1-3"/>
  </g>
</svg>
