<svg id="Ebene_1" data-name="Ebene 1" xmlns="http://www.w3.org/2000/svg" viewBox="0 0 200 80">
  <defs>
    <style>
      .cls-1 {
        fill: #4d4d4c;
      }
    </style>
  </defs>
  <g>
    <path class="cls-1" d="M79.66,43c0-2.24-1.4-3.21-3.2-4.05-.61-.28-1.91-.77-1.91-1.57S75.2,36,76.12,36a6.78,6.78,0,0,1,2.57.7l.43-2.28A11.28,11.28,0,0,0,76,33.84c-2.27,0-4.23,1.24-4.23,3.72,0,2.11,1.35,2.93,3,3.71.77.36,2.05.8,2.05,1.84A1.77,1.77,0,0,1,75,44.82,7,7,0,0,1,72,44l-.43,2.35a10.46,10.46,0,0,0,3.23.64c2.44,0,4.87-1,4.87-4"/>
    <path class="cls-1" d="M93,40.44c0,2.33-.93,4.39-3,4.39s-3-2.06-3-4.39.93-4.39,3-4.39,3,2.06,3,4.39m2.88,0c0-3.66-2.12-6.59-5.83-6.59s-5.83,2.93-5.83,6.59S86.32,47,90,47s5.83-2.94,5.83-6.6"/>
    <polygon class="cls-1" points="108.5 46.79 108.5 44.53 103.78 44.53 103.78 34.1 101.05 34.1 101.05 46.79 108.5 46.79"/>
    <path class="cls-1" d="M120.51,40.44c0,2.33-.94,4.39-3,4.39s-3-2.06-3-4.39.94-4.39,3-4.39,3,2.06,3,4.39m2.88,0c0-3.66-2.13-6.59-5.84-6.59s-5.83,2.93-5.83,6.59,2.13,6.6,5.83,6.6,5.84-2.94,5.84-6.6"/>
    <polygon class="cls-1" points="137 36.35 137 34.1 126.85 34.1 126.85 36.35 130.56 36.35 130.56 46.79 133.29 46.79 133.29 36.35 137 36.35"/>
    <polygon class="cls-1" points="151.69 46.79 151.69 34.1 148.96 34.1 148.96 39.15 144.06 39.15 144.06 34.1 141.32 34.1 141.32 46.79 144.06 46.79 144.06 41.41 148.96 41.41 148.96 46.79 151.69 46.79"/>
    <path class="cls-1" d="M168.17,41.54V34.1h-2.8v7.15c0,2.17-.58,3.42-2.36,3.42-1.62,0-2.34-1.14-2.34-3.35V34.1h-2.79v7.44c0,3.49,1.91,5.5,5.15,5.5s5.14-2,5.14-5.5"/>
    <polygon class="cls-1" points="195.63 46.79 195.63 34.1 193.14 34.1 193.14 42.92 189.09 34.1 185.48 34.1 185.48 46.79 188 46.79 188 37.54 192.24 46.79 195.63 46.79"/>
    <path class="cls-1" d="M175,42.26c-.51-1-.83-1.56-2.4-.88v-.93c7.47-2.76,6.19-9.66.13-6.29v-1c3.7-2.23,7.61-1.9,7.61,1.7,0,3.81-5.43,5.46-5.43,5.46a2.53,2.53,0,0,1,2.56,1.51c.41.8,6.1,12.07,7.22,13.1a2.29,2.29,0,0,0,2.48.55,3.31,3.31,0,0,0,1.07-1.14v.76a5,5,0,0,1-.62.85,3.78,3.78,0,0,1-5.37-.29c-1.71-1.76-6.8-12.52-7.25-13.43"/>
    <path class="cls-1" d="M12.24,43.2a3.36,3.36,0,0,0-1-2.53C10,39.47,8,39.12,7.05,38.22a1.45,1.45,0,0,1-.49-1.09c0-1.32,1.25-1.73,2.27-1.73a5.69,5.69,0,0,1,2.48.57l.27-1.69a9.74,9.74,0,0,0-2.84-.43c-2.33,0-4.15,1.2-4.15,3.44a2.94,2.94,0,0,0,.85,2.2C6.66,40.68,8.72,41,9.67,42a1.84,1.84,0,0,1,.6,1.36c0,1.5-1.6,2.1-2.66,2.1a6.93,6.93,0,0,1-3-.73l-.22,1.73a11.17,11.17,0,0,0,3,.57c2.61,0,4.85-1.07,4.85-3.78"/>
    <polygon class="cls-1" points="25.6 35.67 25.6 34.1 15.33 34.1 15.33 35.67 19.53 35.67 19.53 46.73 21.39 46.73 21.39 35.67 25.6 35.67"/>
    <path class="cls-1" d="M35.1,41.42H31.29l1.9-5.61Zm3.71,5.31L34.46,34.1H32L27.67,46.73h1.86l1.29-3.85h4.75l1.29,3.85Z"/>
    <path class="cls-1" d="M51.74,40.42a5.44,5.44,0,0,1-1.35,3.87,4.11,4.11,0,0,1-3,.87h-2V35.67h2a4.15,4.15,0,0,1,3,.87,5.47,5.47,0,0,1,1.35,3.88m2,0a6.61,6.61,0,0,0-1.82-4.87c-1.51-1.45-3.51-1.45-5-1.45H43.58V46.73h3.28c1.51,0,3.51,0,5-1.44a6.63,6.63,0,0,0,1.82-4.87"/>
    <polygon class="cls-1" points="67.25 35.67 67.25 34.1 56.98 34.1 56.98 35.67 61.18 35.67 61.18 46.73 63.04 46.73 63.04 35.67 67.25 35.67"/>
  </g>
</svg>
