<svg id="Ebene_1" data-name="Ebene 1" xmlns="http://www.w3.org/2000/svg" viewBox="0 0 200 80">
  <defs>
    <style>
      .cls-1 {
        fill: #4d4d4c;
      }
    </style>
  </defs>
  <g>
    <path class="cls-1" d="M67,58.16c0,1,.24,1.23,1.18,1.23,1.21,0,2.25-.55,2.25-2s-1-2-2.7-2H67Zm.74-3.32c1.51,0,2.2-.6,2.2-1.75A1.7,1.7,0,0,0,68,51.34a2,2,0,0,0-.81.14c-.14.1-.19.23-.19.69v2.67Zm1.59.17c1.3.22,2.35.81,2.35,2.21a2.33,2.33,0,0,1-1.34,2.12,5.47,5.47,0,0,1-2.69.56h-3v-.43c1.24-.09,1.31-.16,1.31-1.3V52.6c0-1.13-.06-1.2-1.2-1.29v-.43h3.52a3.45,3.45,0,0,1,2.06.46A2,2,0,0,1,71.05,53a2.19,2.19,0,0,1-1.76,2Z"/>
    <path class="cls-1" d="M76.63,51.74a.66.66,0,0,1,.67-.68.63.63,0,0,1,.61.68.63.63,0,0,1-.62.64.67.67,0,0,1-.66-.64m-2.26,0a.64.64,0,1,1,1.27,0,.64.64,0,1,1-1.27,0m5.36,7.83a7.42,7.42,0,0,0-1,.22c-.35.09-.7.19-.92.27l-.1-.08V59a7.71,7.71,0,0,1-1.09.75,1.9,1.9,0,0,1-1,.32c-.88,0-1.73-.53-1.73-2.11V55.31c0-.77-.12-.84-.45-.9L73,54.33V54l1-.09c.38-.07.76-.12.94-.17,0,.46,0,1.14,0,2v1.83c0,1.3.64,1.62,1.29,1.62a2.33,2.33,0,0,0,1.58-.71V55.31c0-.77-.14-.84-.61-.9l-.52-.08V54l1.26-.1a8.65,8.65,0,0,0,.86-.16v4.65c0,.71.13.79.67.82h.39Z"/>
    <path class="cls-1" d="M86,58.69a3.41,3.41,0,0,1-2.36,1.37,2.77,2.77,0,0,1-2.76-2.91,3.34,3.34,0,0,1,1.38-2.73,3.72,3.72,0,0,1,2.06-.78h0a2,2,0,0,1,1.26.39c.19.14.24.24.24.39a.7.7,0,0,1-.45.59.32.32,0,0,1-.26-.13,2,2,0,0,0-1.39-.55c-1,0-1.82.85-1.82,2.27a2.17,2.17,0,0,0,3.84,1.73Z"/>
    <path class="cls-1" d="M90.86,59.9v-.4c.82-.06,1-.16,1-1.07V56.17c0-1.16-.43-1.75-1.43-1.75a2.06,2.06,0,0,0-1.55.78v3.23c0,.9.09,1,1,1.07v.4H86.89v-.4c.85-.06,1-.16,1-1.07V51.9c0-.87-.06-.95-1-1v-.35a16.64,16.64,0,0,0,2-.5v4.62a3.22,3.22,0,0,1,2-1c1.12,0,1.94.72,1.94,2.39v2.41c0,.92.1,1,.94,1.06v.4Z"/>
    <path class="cls-1" d="M97.57,54.18c-.65,0-1.28.59-1.54,1.69.81,0,1.62,0,2.48,0,.27,0,.35-.1.35-.3a1.3,1.3,0,0,0-1.28-1.37Zm2.33,4.61a3.19,3.19,0,0,1-2.25,1.27,2.75,2.75,0,0,1-2.67-3,3.64,3.64,0,0,1,.9-2.45,2.84,2.84,0,0,1,2-1h0A2.14,2.14,0,0,1,100,55.77c0,.32,0,.42-.29.48s-2,.17-3.7.22c0,1.89,1.13,2.68,2.08,2.68a2.37,2.37,0,0,0,1.6-.71Z"/>
    <path class="cls-1" d="M103.2,55.11c.42-.69,1-1.47,1.72-1.47a.75.75,0,0,1,.8.69.72.72,0,0,1-.41.63c-.17,0-.27,0-.36,0a.72.72,0,0,0-.58-.28c-.39,0-.9.47-1.2,1.31v2.46c0,.92.06,1,1.16,1.08v.4h-3.14v-.4c.91-.06,1-.16,1-1.07V55.6c0-.94-.06-1-.89-1.07v-.36a7.12,7.12,0,0,0,1.86-.57v1.51Z"/>
    <path class="cls-1" d="M113.56,51.31a1.24,1.24,0,0,0-1.16,1.39c0,.69.43,1.18,1.28,1.79a2.2,2.2,0,0,0,1.06-1.75,1.32,1.32,0,0,0-1.17-1.43Zm-.14,7.87a3,3,0,0,0,2.31-1.33,19.79,19.79,0,0,0-2.88-2.67,2.49,2.49,0,0,0-1.37,2,1.9,1.9,0,0,0,1.93,2Zm6.1-4.79a1.72,1.72,0,0,0-1.6,1c-.34.54-.68,1.12-1.18,1.87A16.08,16.08,0,0,1,119,60l-.09.16a3.7,3.7,0,0,1-1.58-.58c-.16-.2-.76-.89-1.18-1.35a3.68,3.68,0,0,1-3,1.85,2.59,2.59,0,0,1-2.73-2.53c0-1.29.89-1.83,2.09-2.73a2.51,2.51,0,0,1-1-1.89,2.17,2.17,0,0,1,2.26-2.13,1.91,1.91,0,0,1,2,1.9,1.56,1.56,0,0,1-.57,1.21,11.82,11.82,0,0,1-1.08.86,30.62,30.62,0,0,1,2.31,2.12,9.06,9.06,0,0,0,.82-1.65c.26-.63.08-.76-.88-.87V54h3.2Z"/>
    <path class="cls-1" d="M126.39,54.18c-.65,0-1.28.59-1.54,1.69.82,0,1.62,0,2.48,0,.27,0,.35-.1.35-.3a1.3,1.3,0,0,0-1.27-1.37Zm2.34,4.61a3.21,3.21,0,0,1-2.26,1.27,2.74,2.74,0,0,1-2.66-3,3.59,3.59,0,0,1,.9-2.45,2.8,2.8,0,0,1,2-1h0a2.15,2.15,0,0,1,2.08,2.13c0,.32-.06.42-.3.48s-2,.17-3.7.22c0,1.89,1.13,2.68,2.08,2.68a2.4,2.4,0,0,0,1.61-.71Z"/>
    <path class="cls-1" d="M132.42,58.16c0,1,.24,1.23,1.18,1.23,1.22,0,2.25-.55,2.25-2s-1-2-2.7-2h-.73Zm.75-3.32c1.51,0,2.19-.6,2.19-1.75a1.7,1.7,0,0,0-1.94-1.75,2,2,0,0,0-.81.14c-.14.1-.19.23-.19.69v2.67Zm1.59.17c1.3.22,2.35.81,2.35,2.21a2.35,2.35,0,0,1-1.34,2.12,5.51,5.51,0,0,1-2.7.56h-3v-.43c1.24-.09,1.3-.16,1.3-1.3V52.6c0-1.13-.05-1.2-1.2-1.29v-.43h3.52a3.43,3.43,0,0,1,2.06.46,2,2,0,0,1,.77,1.61,2.21,2.21,0,0,1-1.76,2Z"/>
    <path class="cls-1" d="M139.75,56.55c0,1.74.78,3,2,3,.9,0,1.64-.69,1.64-2.54,0-1.55-.69-2.9-2-2.9-.88,0-1.68.85-1.68,2.42m1.83-2.91a3,3,0,0,1,3,3.1,3.09,3.09,0,0,1-3,3.32,3,3,0,0,1-3-3.07,3.15,3.15,0,0,1,3-3.35Z"/>
    <path class="cls-1" d="M147.22,56.55c0,1.74.78,3,2,3,.91,0,1.64-.69,1.64-2.54,0-1.55-.69-2.9-2-2.9-.88,0-1.68.85-1.68,2.42m1.83-2.91a3,3,0,0,1,3,3.1,3.08,3.08,0,0,1-3,3.32A3,3,0,0,1,146,57a3.15,3.15,0,0,1,3-3.35Z"/>
    <path class="cls-1" d="M158.31,59.91c-.74-.77-1.59-1.84-2.42-2.76-.19-.23-.31-.3-.43-.3a.78.78,0,0,0-.27.06v1.52c0,.91.13,1,1.05,1.07v.4h-3.05v-.4c.95-.06,1-.2,1-1.07V52c0-.95-.08-1-1-1.08v-.37a11,11,0,0,0,1.92-.5v6.5a1.77,1.77,0,0,0,.92-.47,12.38,12.38,0,0,0,1-1.24c.28-.38.27-.49-.38-.57v-.39l2.84-.15v.39a2.87,2.87,0,0,0-1.83.85,14.62,14.62,0,0,0-1.22,1.33,30.88,30.88,0,0,0,2.19,2.46,2.06,2.06,0,0,0,1.43.76v.4Z"/>
    <path class="cls-1" d="M164.31,55.48c-.25-.85-.71-1.39-1.38-1.39a.92.92,0,0,0-.92,1c0,.65.58,1,1.18,1.19,1,.42,1.76.92,1.76,1.88a2.08,2.08,0,0,1-2.28,1.9,2.64,2.64,0,0,1-1.59-.48,5.88,5.88,0,0,1-.25-1.63l.44-.07c.23.94.82,1.7,1.66,1.7a1,1,0,0,0,1-1c0-.62-.46-.94-1.1-1.26-.92-.41-1.77-.84-1.77-1.9a1.89,1.89,0,0,1,2.08-1.77,3.1,3.1,0,0,1,1.22.24,9.55,9.55,0,0,1,.34,1.49Z"/>
    <path class="cls-1" d="M35.05,19.82h6.67l0,13.8c0,6.9,0,6.91,0,6.92h8.84v6H35.05Z"/>
    <path class="cls-1" d="M53.37,19.82h6.71V36.13a.07.07,0,0,1,0,0c0,.35,0,.62,0,.66s.09.45.15.7a6.05,6.05,0,0,0,.37.94c.1.21.41.62.41.66s.12.11.12.15c0,.21,1.18,1,1.42,1.14a5.2,5.2,0,0,0,1,.38c.4.1.74.09,1.14.18l1.33,0,.87-.15a3.75,3.75,0,0,0,1.23-.62c.09-.08,1-.9,1-1.21,0,0,.36-.56.36-.73,0,0,.34-1,.34-1.09s.2-1,.2-1.19V19.82h6.73V36.16l0,.05c0,.32,0,.6,0,.64s-.14,1.06-.14,1.43c0,.17-.2.95-.2,1s-.2.61-.2.74-.27.76-.27.8-.18.36-.26.54-.48.69-.48.88-.25.34-.25.38a4.08,4.08,0,0,1-.38.5A9,9,0,0,1,72.48,45a11,11,0,0,1-3,1.34,15.79,15.79,0,0,1-3.23.56c-.64,0-.55,0-.79,0l-1.78-.07a14.68,14.68,0,0,1-1.71-.26,13.61,13.61,0,0,1-3.4-1.14,14.76,14.76,0,0,1-1.56-1,8.14,8.14,0,0,1-1.7-1.67,6.31,6.31,0,0,1-.51-.77s-.09-.11-.09-.15a11.21,11.21,0,0,1-1-2.47,7.93,7.93,0,0,1-.18-.94c0-.35-.08-.46-.08-1.2,0,0,0-.06,0-.1Z"/>
    <path class="cls-1" d="M80.6,19.82h22l-1.28,5.85q-3.23,0-6.45,0c-.09,2.35,0,4.79,0,7.19,0,4.54,0,9.09,0,13.64h-7l0-13.8c0-6.91,0-6.92,0-6.92H80.6Z"/>
    <rect class="cls-1" x="62.46" y="20.02" width="5.44" height="5.65"/>
    <polygon class="cls-1" points="105.33 19.82 112.03 19.82 112.03 29.88 122.13 29.88 122.13 19.82 128.92 19.82 128.92 46.48 122.25 46.48 122.25 36.02 112.13 36.02 112.13 46.48 105.33 46.48 105.33 19.82"/>
    <path class="cls-1" d="M138.78,19.84l5.26,9.4,5.25-9.42h7.08L147.3,36.1V46.48h-6.63c0-3.45,0-6.9,0-10.35l-8.85-15.85c-.1-.13-.17-.3-.27-.44Z"/>
  </g>
</svg>
