<svg xmlns="http://www.w3.org/2000/svg" viewBox="0 0 147.4016 191.3386"><defs><style>.a{fill:#adadad;}</style></defs><path class="a" d="M53.9238,139.096v-9.61h1.7v8.02H59.69v1.59Z"/><path class="a" d="M61.3218,131.477v-1.689h1.771v1.689Zm.069,7.623v-6.676h1.622V139.1Z"/><path class="a" d="M70.6038,133.799h-3.09v3.076c0,.686.288,1,.728,1,.536,0,.743-.328.743-1.153v-.961h1.619v.985a2.2542,2.2542,0,0,1-2.362,2.542,2.1,2.1,0,0,1-2.349-2.4v-3.089h-1.319v-1.375h1.318v-1.167l1.622-.755v1.922h3.09Z"/><path class="a" d="M78.47,136.2019h-4.795a2.3679,2.3679,0,0,0,.371,1.112,1.5578,1.5578,0,0,0,1.3729.647,1.39,1.39,0,0,0,1.429-.9079H78.47a2.8718,2.8718,0,0,1-3.008,2.24,3.1369,3.1369,0,0,1-2.789-1.265,3.781,3.781,0,0,1-.618-2.238,3.9666,3.9666,0,0,1,.673-2.279,3.039,3.039,0,0,1,2.6-1.278c2,0,3.146,1.263,3.146,3.42Zm-1.635-1.1669a1.3839,1.3839,0,0,0-1.2574-1.5,1.3651,1.3651,0,0,0-.2426,0,1.5567,1.5567,0,0,0-1.306.6589,2.1987,2.1987,0,0,0-.316.8381Z"/><path class="a" d="M80.3468,139.1v-6.676h1.608l-.467,1.924h.247c.329-1.457,1.057-2.116,2.075-2.116,1.234,0,1.84.81,1.84,2.2v1.455h-1.663v-.906c0-.879-.3-1.237-.906-1.237-.729,0-1.114.619-1.114,1.786v3.571Z"/><path class="a" d="M92.8148,134.76v4.34h-1.622l.3859-1.7861h-.233a2.2139,2.2139,0,0,1-2.294,1.979,1.9214,1.9214,0,0,1-1.514-3.255,2.8006,2.8006,0,0,1,1.855-.7l1.8-.124v-.453c0-.728-.439-1.167-1.332-1.167-1.289,0-1.3,1-1.3,1.126v.055H86.9088v-.055c0-.1919.014-2.487,2.995-2.487C91.8238,132.232,92.8148,133.1419,92.8148,134.76Zm-1.622,1.552-1.413.151a1.4052,1.4052,0,0,0-.867.329.7144.7144,0,0,0-.206.522.6508.6508,0,0,0,.192.494.8731.8731,0,0,0,.6449.22,1.7181,1.7181,0,0,0,1.6491-1.717Z"/><path class="a" d="M100.1288,133.799h-3.091v3.076c0,.686.288,1,.728,1,.5369,0,.741-.328.741-1.153v-.961h1.622v.985a2.2554,2.2554,0,0,1-2.363,2.542,2.1,2.1,0,0,1-2.348-2.4v-3.089H94.1v-1.375h1.318v-1.167l1.62-.755v1.922h3.091Z"/><path class="a" d="M101.98,136.572v-4.148h1.648v3.884c0,.989.412,1.5,1.224,1.5.9,0,1.483-.728,1.483-1.909v-3.475h1.62V139.1h-1.62l.412-1.7861h-.235c-.385,1.306-1.111,1.979-2.182,1.979C102.7758,139.292,101.98,138.357,101.98,136.572Z"/><path class="a" d="M110.3518,139.1v-6.676h1.608l-.467,1.924h.247c.33-1.457,1.056-2.116,2.073-2.116,1.236,0,1.841.81,1.841,2.2v1.455h-1.663v-.906c0-.879-.3-1.237-.906-1.237-.729,0-1.114.619-1.114,1.786v3.571Z"/><path class="a" d="M122.6958,133.799h-3.091v3.076c0,.686.288,1,.728,1,.537,0,.741-.328.741-1.153v-.961h1.622v.985a2.2554,2.2554,0,0,1-2.363,2.542,2.1,2.1,0,0,1-2.348-2.4v-3.089h-1.318v-1.375h1.318v-1.167l1.62-.755v1.922h3.091Z"/><path class="a" d="M130.0678,134.76v4.34h-1.622l.3859-1.7861h-.233a2.2149,2.2149,0,0,1-2.294,1.979,1.9214,1.9214,0,0,1-1.514-3.255,2.8006,2.8006,0,0,1,1.855-.7l1.8-.124v-.453c0-.728-.439-1.167-1.332-1.167-1.289,0-1.3,1-1.3,1.126v.055h-1.648v-.055c0-.1919.012-2.487,2.995-2.487C129.0788,132.232,130.0678,133.1419,130.0678,134.76Zm-1.622,1.552-1.413.151a1.4048,1.4048,0,0,0-.866.329.7144.7144,0,0,0-.206.522.6508.6508,0,0,0,.192.494.8731.8731,0,0,0,.6449.22,1.7181,1.7181,0,0,0,1.6481-1.717Z"/><path class="a" d="M131.8738,139.128h1.594c.069.8.577,1.277,1.593,1.277a1.5381,1.5381,0,0,0,1.661-1.732v-.177l.51-1.814h-.234a2.2871,2.2871,0,0,1-2.253,1.991,2.6581,2.6581,0,0,1-2.279-1.14,3.5281,3.5281,0,0,1-.592-2.087,3.6,3.6,0,0,1,.592-2.089,2.6478,2.6478,0,0,1,2.279-1.126,2.289,2.289,0,0,1,2.253,1.992h.234l-.494-1.8h1.607v5.729c0,2.4-1.1,3.6-3.283,3.6C133.0288,141.75,131.9578,140.803,131.8738,139.128Zm4.548-2.432a2.35,2.35,0,0,0,0-2.485,1.6058,1.6058,0,0,0-2.555,0,2.3411,2.3411,0,0,0,0,2.485,1.608,1.608,0,0,0,2.555,0Z"/><path class="a" d="M146.5648,136.2019h-4.792a2.3518,2.3518,0,0,0,.371,1.112,1.55,1.55,0,0,0,1.371.647,1.39,1.39,0,0,0,1.429-.9079h1.62a2.869,2.869,0,0,1-3.007,2.24,3.1387,3.1387,0,0,1-2.789-1.265,3.781,3.781,0,0,1-.618-2.238,3.9534,3.9534,0,0,1,.674-2.279,3.0352,3.0352,0,0,1,2.6-1.278c2,0,3.144,1.263,3.144,3.42Zm-1.634-1.1669a1.3839,1.3839,0,0,0-1.2574-1.5,1.3651,1.3651,0,0,0-.2426,0,1.5567,1.5567,0,0,0-1.306.6589,2.173,2.173,0,0,0-.316.8381Z"/><path class="a" d="M37.5808,154.964a4.72,4.72,0,0,1,0-4.67,2.7378,2.7378,0,0,1,2.334-1.2,2.3921,2.3921,0,0,1,2.389,1.979h.235l-.413-1.786v-2.938h1.622v9.6141h-1.622l.413-1.7861h-.235a2.3911,2.3911,0,0,1-2.389,1.9791A2.7372,2.7372,0,0,1,37.5808,154.964Zm4.189-.908a2.8438,2.8438,0,0,0,0-2.856,1.753,1.753,0,0,0-2.761,0,2.7589,2.7589,0,0,0,0,2.856,1.7513,1.7513,0,0,0,2.761,0Z"/><path class="a" d="M52.0228,153.068H47.23a2.37,2.37,0,0,0,.371,1.112,1.5561,1.5561,0,0,0,1.375.647,1.3872,1.3872,0,0,0,1.426-.908h1.622a2.8711,2.8711,0,0,1-3.008,2.24,3.1352,3.1352,0,0,1-2.787-1.263,3.7757,3.7757,0,0,1-.619-2.24,3.9686,3.9686,0,0,1,.674-2.279,3.0371,3.0371,0,0,1,2.595-1.278c2.006,0,3.146,1.265,3.146,3.42Zm-1.635-1.167a1.384,1.384,0,0,0-1.5-1.5,1.5589,1.5589,0,0,0-1.3.659,2.1505,2.1505,0,0,0-.316.838Z"/><path class="a" d="M57.4838,153.054v-.247h1.757v.151a1.5687,1.5687,0,0,0,1.757,1.7179,1.6277,1.6277,0,0,0,1.5239-.7,1.2985,1.2985,0,0,0,.166-.661,1.0605,1.0605,0,0,0-.124-.549,1.855,1.855,0,0,0-1.375-.755l-1.112-.206a2.97,2.97,0,0,1-2.169-1.332,2.682,2.682,0,0,1-.331-1.359,3.03,3.03,0,0,1,.371-1.471,3.4222,3.4222,0,0,1,3.118-1.51c2.13,0,3.4751,1.153,3.4751,3.1v.247h-1.759v-.166a1.55,1.55,0,0,0-1.757-1.675,1.6281,1.6281,0,0,0-1.524.7,1.3,1.3,0,0,0-.165.659,1.0825,1.0825,0,0,0,.124.551,1.89,1.89,0,0,0,1.3729.728l1.1.22a3.0363,3.0363,0,0,1,2.182,1.359,2.6282,2.6282,0,0,1,.331,1.346,2.8653,2.8653,0,0,1-.371,1.483,3.4,3.4,0,0,1-3.1181,1.5C58.83,156.186,57.4838,155.019,57.4838,153.054Z"/><path class="a" d="M66.5958,154.744a3.937,3.937,0,0,1,0-4.23,3.605,3.605,0,0,1,5.728,0,3.9289,3.9289,0,0,1,0,4.23,3.6082,3.6082,0,0,1-5.728,0Zm4.313-.757a2.6679,2.6679,0,0,0,0-2.719,1.786,1.786,0,0,0-2.9,0,2.6,2.6,0,0,0,0,2.719,1.784,1.784,0,0,0,2.9,0Z"/><path class="a" d="M74.7358,155.966v-9.614h1.622v9.614Z"/><path class="a" d="M84.5688,153.068h-4.793a2.3536,2.3536,0,0,0,.371,1.112,1.5551,1.5551,0,0,0,1.373.647,1.388,1.388,0,0,0,1.428-.908H84.57a2.872,2.872,0,0,1-3.008,2.24,3.1333,3.1333,0,0,1-2.787-1.263,3.7757,3.7757,0,0,1-.619-2.24,3.958,3.958,0,0,1,.674-2.279,3.0362,3.0362,0,0,1,2.595-1.278c2.0061,0,3.146,1.265,3.146,3.42Zm-1.635-1.167a1.385,1.385,0,0,0-1.5-1.5,1.5629,1.5629,0,0,0-1.306.659,2.1982,2.1982,0,0,0-.316.838Z"/><path class="a" d="M86.3078,153.44v-4.15h1.648v3.887c0,.99.414,1.5,1.224,1.5.906,0,1.484-.728,1.484-1.91v-3.475h1.619v6.676h-1.619l.41-1.786h-.233c-.384,1.306-1.112,1.979-2.183,1.979C87.1058,156.158,86.3078,155.219,86.3078,153.44Z"/><path class="a" d="M94.6758,155.966V149.29h1.608l-.465,1.924h.246c.329-1.457,1.057-2.116,2.075-2.116,1.236,0,1.84.812,1.84,2.2v1.455h-1.663v-.906c0-.879-.3-1.236-.906-1.236-.728,0-1.112.618-1.112,1.785v3.571Z"/><path class="a" d="M107.4378,153.068h-4.793a2.3709,2.3709,0,0,0,.371,1.112,1.5551,1.5551,0,0,0,1.373.647,1.3871,1.3871,0,0,0,1.428-.908h1.622a2.8711,2.8711,0,0,1-3.008,2.24,3.1352,3.1352,0,0,1-2.787-1.263,3.7763,3.7763,0,0,1-.618-2.24,3.9583,3.9583,0,0,1,.673-2.279,3.0368,3.0368,0,0,1,2.595-1.278c2.006,0,3.146,1.265,3.146,3.42Zm-1.634-1.167a1.386,1.386,0,0,0-1.5-1.5,1.5579,1.5579,0,0,0-1.3.659,2.1741,2.1741,0,0,0-.316.838Z"/><path class="a" d="M20.7358,171.827a4.71,4.71,0,0,1,0-4.67,2.7371,2.7371,0,0,1,2.334-1.195,2.3911,2.3911,0,0,1,2.389,1.977h.235l-.413-1.785V163.217h1.622v9.613h-1.622l.413-1.785h-.235a2.3911,2.3911,0,0,1-2.389,1.977A2.7371,2.7371,0,0,1,20.7358,171.827Zm4.189-.906a2.8471,2.8471,0,0,0,0-2.857,1.7548,1.7548,0,0,0-2.761,0,2.762,2.762,0,0,0,0,2.857,1.753,1.753,0,0,0,2.761,0Z"/><path class="a" d="M29.2278,165.207V163.52h1.771v1.69Zm.069,7.622v-6.674h1.62v6.674Z"/><path class="a" d="M36.7,169.919v-.247h1.757v.151a1.5681,1.5681,0,0,0,1.757,1.716,1.631,1.631,0,0,0,1.526-.7,1.3013,1.3013,0,0,0,.165-.659,1.0467,1.0467,0,0,0-.124-.5491,1.8514,1.8514,0,0,0-1.374-.755l-1.111-.207a2.9649,2.9649,0,0,1-2.171-1.332,2.6933,2.6933,0,0,1-.33-1.359,3.029,3.029,0,0,1,.371-1.469,3.4172,3.4172,0,0,1,3.117-1.51c2.13,0,3.477,1.153,3.477,3.1v.247H42v-.165a1.5513,1.5513,0,0,0-1.757-1.675,1.6309,1.6309,0,0,0-1.526.7,1.32,1.32,0,0,0-.165.659,1.0621,1.0621,0,0,0,.125.549,1.8821,1.8821,0,0,0,1.373.728l1.1.22a3.0329,3.0329,0,0,1,2.183,1.361,2.6406,2.6406,0,0,1,.329,1.346,2.8653,2.8653,0,0,1-.371,1.483,3.3922,3.3922,0,0,1-3.117,1.5C38.0438,173.051,36.7,171.882,36.7,169.919Z"/><path class="a" d="M45.8118,171.608a3.9378,3.9378,0,0,1,0-4.23,3.6077,3.6077,0,0,1,5.729,0,3.93,3.93,0,0,1,0,4.23,3.608,3.608,0,0,1-5.729,0Zm4.313-.755a2.6711,2.6711,0,0,0,0-2.72,1.7878,1.7878,0,0,0-2.9,0,2.6,2.6,0,0,0,0,2.72,1.7862,1.7862,0,0,0,2.9,0Z"/><path class="a" d="M53.9528,172.83V163.217h1.622v9.613Z"/><path class="a" d="M63.7848,169.933H58.99a2.3694,2.3694,0,0,0,.371,1.112,1.5581,1.5581,0,0,0,1.374.645,1.3911,1.3911,0,0,0,1.428-.906h1.622a2.8721,2.8721,0,0,1-3.008,2.238,3.1362,3.1362,0,0,1-2.789-1.263,3.7814,3.7814,0,0,1-.618-2.238,3.9734,3.9734,0,0,1,.673-2.281,3.042,3.042,0,0,1,2.6-1.2771c2,0,3.146,1.2651,3.146,3.42Zm-1.635-1.169a1.385,1.385,0,0,0-1.5-1.5,1.5576,1.5576,0,0,0-1.306.661,2.1924,2.1924,0,0,0-.316.836Z"/><path class="a" d="M70.7708,167.528H67.68v3.077c0,.687.29,1,.729,1,.534,0,.741-.33.741-1.153v-.961h1.62v.989a2.2539,2.2539,0,0,1-2.362,2.54,2.1,2.1,0,0,1-2.349-2.4v-3.091h-1.32v-1.373h1.32v-1.167l1.62-.755v1.922H70.77Z"/><path class="a" d="M77.8818,167.528h-3.091v3.077c0,.687.288,1,.728,1,.537,0,.741-.33.741-1.153v-.961h1.622v.989a2.2533,2.2533,0,0,1-2.363,2.54,2.1,2.1,0,0,1-2.348-2.4v-3.091h-1.318v-1.373h1.318v-1.167l1.62-.755v1.922h3.091Z"/><path class="a" d="M85.2518,168.491v4.339H83.63l.386-1.785h-.233a2.2141,2.2141,0,0,1-2.294,1.977,1.92,1.92,0,0,1-1.514-3.254,2.7994,2.7994,0,0,1,1.855-.7l1.8-.124v-.453c0-.728-.439-1.167-1.332-1.167-1.2891,0-1.3,1-1.3,1.124v.056H79.35v-.056c0-.192.014-2.485,2.9949-2.485C84.2608,165.963,85.2518,166.869,85.2518,168.491Zm-1.622,1.552-1.413.151a1.4,1.4,0,0,0-.867.33.714.714,0,0,0-.206.522.6508.6508,0,0,0,.192.494.88.88,0,0,0,.645.22,1.718,1.718,0,0,0,1.649-1.717Z"/><path class="a" d="M9.2528,185.355v4.34h-1.62l.384-1.785h-.232a2.2151,2.2151,0,0,1-2.294,1.977,2.0783,2.0783,0,0,1-1.5-.563,1.8232,1.8232,0,0,1-.508-1.332,1.8458,1.8458,0,0,1,.494-1.361,2.807,2.807,0,0,1,1.855-.7l1.8-.124v-.453c0-.728-.439-1.167-1.332-1.167-1.292,0-1.306,1-1.306,1.126v.055H3.3458v-.055c0-.192.014-2.485,2.995-2.485C8.2638,182.829,9.2528,183.735,9.2528,185.355Zm-1.62,1.553-1.414.151a1.3994,1.3994,0,0,0-.865.328.7149.7149,0,0,0-.206.523.6466.6466,0,0,0,.192.493.8723.8723,0,0,0,.645.221,1.721,1.721,0,0,0,1.647-1.716Z"/><path class="a" d="M14.8878,186.785v-.247h1.757v.1489a1.5677,1.5677,0,0,0,1.758,1.716,1.6259,1.6259,0,0,0,1.526-.7,1.3,1.3,0,0,0,.165-.658,1.0572,1.0572,0,0,0-.124-.5509,1.8522,1.8522,0,0,0-1.375-.7551l-1.111-.2a2.9749,2.9749,0,0,1-2.171-1.332,2.6985,2.6985,0,0,1-.329-1.361,3.0336,3.0336,0,0,1,.371-1.471,3.4181,3.4181,0,0,1,3.117-1.51c2.13,0,3.477,1.155,3.477,3.1v.247h-1.761v-.1609a1.552,1.552,0,0,0-1.758-1.677,1.631,1.631,0,0,0-1.526.7,1.3188,1.3188,0,0,0-.163.659,1.0657,1.0657,0,0,0,.124.549,1.8821,1.8821,0,0,0,1.373.728l1.1.22a3.0367,3.0367,0,0,1,2.183,1.361,2.6412,2.6412,0,0,1,.33,1.346,2.8653,2.8653,0,0,1-.371,1.483,3.3941,3.3941,0,0,1-3.117,1.5C16.2378,189.916,14.8878,188.751,14.8878,186.785Z"/><path class="a" d="M24.0048,188.473a3.93,3.93,0,0,1,0-4.23,3.606,3.606,0,0,1,5.727,0,3.9221,3.9221,0,0,1,0,4.23,3.606,3.606,0,0,1-5.727,0Zm4.313-.755a2.6711,2.6711,0,0,0,0-2.72,1.7858,1.7858,0,0,0-2.9,0,2.5887,2.5887,0,0,0,0,2.72,1.7862,1.7862,0,0,0,2.9,0Z"/><path class="a" d="M32.1448,189.6959v-9.614h1.62v9.614Z"/><path class="a" d="M36.18,188.473a3.9378,3.9378,0,0,1,0-4.23,3.608,3.608,0,0,1,5.729,0,3.93,3.93,0,0,1,0,4.23,3.608,3.608,0,0,1-5.729,0Zm4.313-.755a2.68,2.68,0,0,0,0-2.72,1.7858,1.7858,0,0,0-2.9,0,2.6,2.6,0,0,0,0,2.72,1.7862,1.7862,0,0,0,2.9,0Z"/><path class="a" d="M49.4968,184.396h-3.089v3.0759c0,.685.288,1,.728,1,.535,0,.743-.33.743-1.153v-.961h1.619v.989a2.2531,2.2531,0,0,1-2.362,2.54,2.1,2.1,0,0,1-2.349-2.4v-3.089h-1.318v-1.375h1.318v-1.167l1.622-.757v1.924h3.089Z"/><path class="a" d="M51.3478,187.17v-4.148h1.648v3.887c0,.987.413,1.5,1.224,1.5.906,0,1.483-.726,1.483-1.908v-3.474h1.62v6.6741h-1.62l.412-1.7851h-.233c-.384,1.3-1.114,1.977-2.185,1.977C52.1478,189.889,51.3478,188.9549,51.3478,187.17Z"/><path class="a" d="M59.72,189.696v-6.674h1.612l-.467,1.922h.247c.33-1.455,1.057-2.1141,2.073-2.1141,1.237,0,1.841.81,1.841,2.2v1.4549h-1.663v-.9119c0-.879-.3-1.236-.906-1.236-.728,0-1.112.619-1.112,1.785v3.571Z"/><path class="a" d="M66.7348,189.696v-6.674h1.622l-.413,1.785h.233c.4-1.3,1.155-1.977,2.253-1.977,1.579,0,2.418.932,2.418,2.719v4.148h-1.663V185.81c0-.989-.426-1.5-1.277-1.5-.947,0-1.552.728-1.552,1.91v3.474Z"/><path class="a" d="M56.8138,41.28h.247v1.757H56.91a1.5678,1.5678,0,0,0-1.716,1.759,1.6277,1.6277,0,0,0,.7,1.5239,1.3,1.3,0,0,0,.658.1651,1.05,1.05,0,0,0,.551-.124,1.8512,1.8512,0,0,0,.755-1.373l.207-1.112a2.9649,2.9649,0,0,1,1.332-2.171,2.6873,2.6873,0,0,1,1.358-.33,3.03,3.03,0,0,1,1.471.371,3.4189,3.4189,0,0,1,1.51,3.118c0,2.128-1.153,3.474-3.1,3.474H60.39V46.581h.163a1.5512,1.5512,0,0,0,1.677-1.758,1.631,1.631,0,0,0-.7-1.526,1.3069,1.3069,0,0,0-.661-.165,1.08,1.08,0,0,0-.549.124,1.8882,1.8882,0,0,0-.7261,1.375l-.221,1.1a3.031,3.031,0,0,1-1.359,2.183,2.6415,2.6415,0,0,1-1.346.33,2.8555,2.8555,0,0,1-1.483-.371,3.4,3.4,0,0,1-1.5-3.117C53.6818,42.626,54.8518,41.28,56.8138,41.28Z"/><path class="a" d="M55.1248,50.394a3.9268,3.9268,0,0,1,4.229,0,3.6,3.6,0,0,1,0,5.727,3.9192,3.9192,0,0,1-4.229,0,3.6,3.6,0,0,1,0-5.727Zm.755,4.313a2.6781,2.6781,0,0,0,2.719,0,1.787,1.787,0,0,0,0-2.9,2.5951,2.5951,0,0,0-2.719,0,1.787,1.787,0,0,0,0,2.9Z"/><path class="a" d="M53.9018,58.603h9.614v1.62h-9.614Z"/><path class="a" d="M55.1248,62.707a3.9268,3.9268,0,0,1,4.229,0,3.6,3.6,0,0,1,0,5.727,3.9192,3.9192,0,0,1-4.229,0,3.6,3.6,0,0,1,0-5.727Zm.755,4.313a2.6781,2.6781,0,0,0,2.719,0,1.786,1.786,0,0,0,0-2.9,2.587,2.587,0,0,0-2.719,0,1.786,1.786,0,0,0,0,2.9Z"/><path class="a" d="M59.2038,76.0229V72.934h-3.077c-.687,0-1,.288-1,.728,0,.536.329.741,1.153.741h.961v1.62h-.989a2.2537,2.2537,0,0,1-2.542-2.362,2.1,2.1,0,0,1,2.4-2.3489h3.092V69.994h1.373v1.318h1.167l.755,1.622h-1.922v3.0889Z"/><path class="a" d="M53.9018,77.939h9.614v1.62h-2.938l-1.786-.412v.235c1.306.4,1.979,1.152,1.979,2.252,0,1.579-.934,2.417-2.72,2.417h-4.148V82.39H57.79c.989,0,1.5-.426,1.5-1.2771,0-.9469-.728-1.553-1.908-1.553h-3.475Z"/><path class="a" d="M56.4288,86.176h4.148v1.648H56.69c-.989,0-1.5.412-1.5,1.222,0,.908.726,1.484,1.908,1.484h3.475v1.62h-6.672V90.53l1.786.412v-.233c-1.306-.384-1.979-1.114-1.979-2.185C53.7088,86.976,54.6428,86.176,56.4288,86.176Z"/><path class="a" d="M53.9018,94.552h6.676v1.6089l-1.924-.4679v.249c1.455.329,2.116,1.057,2.116,2.073,0,1.2359-.81,1.841-2.2,1.841H57.1117V98.193h.908c.879,0,1.237-.3,1.237-.906,0-.728-.619-1.1141-1.786-1.1141H53.9Z"/><path class="a" d="M53.9018,101.498h6.676v1.62l-1.786-.412v.233c1.306.4,1.979,1.153,1.979,2.253,0,1.579-.934,2.4169-2.72,2.4169h-4.148v-1.661H57.79c.989,0,1.5-.427,1.5-1.278,0-.947-.728-1.552-1.908-1.552h-3.475Z"/><path class="a" d="M56.7978,115.681v-4.795a2.38,2.38,0,0,0-1.111.372,1.5508,1.5508,0,0,0-.647,1.373,1.389,1.389,0,0,0,.908,1.428v1.622a2.872,2.872,0,0,1-2.24-3.008,3.1377,3.1377,0,0,1,1.263-2.789,3.789,3.789,0,0,1,2.24-.618,3.9691,3.9691,0,0,1,2.279.673,3.0412,3.0412,0,0,1,1.278,2.6c0,2-1.263,3.146-3.42,3.146Zm1.169-1.635a1.385,1.385,0,0,0,1.5-1.5,1.56,1.56,0,0,0-.661-1.3,2.1422,2.1422,0,0,0-.838-.316Z"/><path class="a" d="M53.9018,117.558h6.676v1.6059l-1.924-.467v.247c1.455.329,2.116,1.059,2.116,2.0751,0,1.2359-.81,1.84-2.2,1.84H57.1117v-1.661h.908c.879,0,1.237-.3,1.237-.906,0-.729-.619-1.114-1.786-1.114H53.9Z"/><path class="a" d="M40.0578,1.406h2.02v1.7h-1.951c-1.236,0-1.716.494-1.716,1.442s.6,1.416,1.91,1.416h6.33v1.7h-6.4c-2.224,0-3.433-1.1141-3.433-3.132C36.8178,2.465,37.9158,1.406,40.0578,1.406Z"/><path class="a" d="M38.26,10.123a3.9289,3.9289,0,0,1,4.23,0,3.606,3.606,0,0,1,0,5.727,3.9289,3.9289,0,0,1-4.23,0,3.6,3.6,0,0,1,0-5.727Zm.755,4.313a2.6772,2.6772,0,0,0,2.719,0,1.7848,1.7848,0,0,0,0-2.9,2.6,2.6,0,0,0-2.719,0,1.7872,1.7872,0,0,0,0,2.9Z"/><path class="a" d="M39.5658,18.125h4.147v1.6489h-3.887c-.989,0-1.5.412-1.5,1.222,0,.906.728,1.483,1.909,1.483H43.71v1.622h-6.676v-1.622l1.786.412v-.233c-1.3-.384-1.979-1.112-1.979-2.183C36.8438,18.923,37.7788,18.125,39.5658,18.125Z"/><path class="a" d="M37.0358,26.43h6.676v1.6059l-1.922-.467v.247c1.455.331,2.114,1.059,2.114,2.0751,0,1.2359-.81,1.84-2.2,1.84h-1.457V30.07h.908c.879,0,1.2359-.3,1.2359-.906,0-.728-.618-1.114-1.786-1.114h-3.571Z"/><path class="a" d="M37.0358,33.376h6.676v1.62l-1.786-.412v.233c1.306.4,1.979,1.153,1.979,2.252,0,1.581-.934,2.418-2.72,2.418H37.0367V37.826h3.887c.99,0,1.5-.426,1.5-1.278,0-.947-.729-1.552-1.909-1.552H37.0378Z"/><path class="a" d="M39.9348,47.561v-4.8a2.3881,2.3881,0,0,0-1.112.3711,1.5559,1.5559,0,0,0-.647,1.375,1.389,1.389,0,0,0,.908,1.428v1.62a2.871,2.871,0,0,1-2.24-3.007,3.1376,3.1376,0,0,1,1.263-2.789,3.792,3.792,0,0,1,2.24-.618,3.9642,3.9642,0,0,1,2.279.673,3.0379,3.0379,0,0,1,1.278,2.6c0,2-1.263,3.144-3.42,3.144Zm1.167-1.634a1.385,1.385,0,0,0,1.5-1.5,1.56,1.56,0,0,0-.661-1.3,2.164,2.164,0,0,0-.838-.316Zm5.48.59L44.55,45.185v-1.4l2.032.92Z"/><path class="a" d="M39.9348,55.383V50.59a2.37,2.37,0,0,0-1.112.371,1.5549,1.5549,0,0,0-.647,1.373,1.3889,1.3889,0,0,0,.908,1.428v1.622a2.8719,2.8719,0,0,1-2.24-3.008,3.1377,3.1377,0,0,1,1.263-2.789,3.7926,3.7926,0,0,1,2.24-.616,3.9763,3.9763,0,0,1,2.279.671,3.0412,3.0412,0,0,1,1.278,2.6c0,2.006-1.263,3.146-3.42,3.146Zm1.167-1.635a1.385,1.385,0,0,0,1.5-1.5,1.56,1.56,0,0,0-.661-1.3,2.1655,2.1655,0,0,0-.838-.316Z"/><path class="a" d="M39.1378,56.833h.082v1.565h-.082c-.686,0-1.031.4-1.031,1.182a1.1886,1.1886,0,0,0,.261.864.6607.6607,0,0,0,.482.192c.412,0,.659-.232.783-.863l.22-.99c.247-1.236.893-1.854,1.992-1.854a1.8319,1.8319,0,0,1,1.346.522,2.99,2.99,0,0,1,.714,2.169c0,1.69-.879,2.693-2.307,2.693h-.069V60.748h.069c.687,0,1.044-.412,1.044-1.195a1.1883,1.1883,0,0,0-.262-.867.6589.6589,0,0,0-.479-.192c-.4,0-.632.275-.755.866l-.192.863c-.29,1.375-.908,1.992-2.034,1.992a1.8,1.8,0,0,1-1.359-.535,2.9136,2.9136,0,0,1-.716-2.143C36.8438,57.835,37.6968,56.833,39.1378,56.833Z"/><path class="a" d="M37.0358,68.075H46.65v1.7H38.63v4.064h-1.594Z"/><path class="a" d="M37.0358,75.542h6.676v1.62h-6.676Zm7.623-.067h1.69v1.771h-1.69Z"/><path class="a" d="M42.3388,84.757V81.666h-3.077c-.687,0-1,.288-1,.728,0,.535.329.743,1.153.743h.961v1.62h-.989a2.2549,2.2549,0,0,1-2.542-2.363,2.1,2.1,0,0,1,2.4-2.348h3.091v-1.32h1.373v1.32h1.167l.755,1.62h-1.922v3.091Z"/><path class="a" d="M42.3388,91.865V88.776h-3.077c-.687,0-1,.288-1,.728,0,.535.329.741,1.153.741h.961v1.62h-.989a2.2537,2.2537,0,0,1-2.542-2.362,2.1,2.1,0,0,1,2.4-2.349h3.091V85.836h1.373v1.322h1.167l.755,1.622h-1.922v3.089Z"/><path class="a" d="M39.9348,99.663V94.87a2.369,2.369,0,0,0-1.112.371,1.5549,1.5549,0,0,0-.647,1.373,1.3907,1.3907,0,0,0,.908,1.4289v1.62a2.8709,2.8709,0,0,1-2.24-3.008,3.1346,3.1346,0,0,1,1.263-2.7869,3.7928,3.7928,0,0,1,2.24-.6181,3.965,3.965,0,0,1,2.279.6731,3.036,3.036,0,0,1,1.278,2.595c0,2.006-1.263,3.1459-3.42,3.1459Zm1.167-1.634a1.385,1.385,0,0,0,1.5-1.5,1.56,1.56,0,0,0-.661-1.3,2.164,2.164,0,0,0-.838-.316Zm5.48.59L44.55,97.286v-1.4l2.032.92Z"/><path class="a" d="M37.0358,101.539h6.676v1.608l-1.922-.467v.247c1.455.33,2.114,1.057,2.114,2.073,0,1.236-.81,1.841-2.2,1.841h-1.457v-1.663h.908c.879,0,1.2359-.3,1.2359-.906,0-.728-.618-1.114-1.786-1.114h-3.571Z"/><path class="a" d="M41.3768,113.869h-4.34v-1.62l1.786.384V112.4a2.2131,2.2131,0,0,1-1.979-2.293,1.9215,1.9215,0,0,1,3.256-1.514,2.7907,2.7907,0,0,1,.7,1.855l.124,1.8h.453c.729,0,1.169-.439,1.169-1.333,0-1.291-1-1.3-1.127-1.3h-.055v-1.649h.055c.192,0,2.487.014,2.487,2.995C43.9038,112.881,42.9978,113.869,41.3768,113.869Zm-1.552-1.62-.151-1.414a1.41,1.41,0,0,0-.33-.867.7186.7186,0,0,0-.522-.2.6511.6511,0,0,0-.494.1919.87.87,0,0,0-.221.6441,1.7221,1.7221,0,0,0,1.718,1.644Z"/><path class="a" d="M37.0358,116.132h6.676v1.62h-6.676Zm7.623-.069h1.69v1.7709h-1.69Z"/><path class="a" d="M37.0358,120.1529h6.676v1.606l-1.922-.467v.247c1.455.329,2.114,1.059,2.114,2.075,0,1.236-.81,1.84-2.2,1.84h-1.457v-1.661h.908c.879,0,1.2359-.3,1.2359-.906,0-.728-.618-1.114-1.786-1.114h-3.571Z"/><path class="a" d="M39.9348,133.046v-4.793a2.369,2.369,0,0,0-1.112.371,1.5548,1.5548,0,0,0-.647,1.373,1.388,1.388,0,0,0,.908,1.428v1.622a2.871,2.871,0,0,1-2.24-3.008,3.1347,3.1347,0,0,1,1.263-2.787,3.7935,3.7935,0,0,1,2.24-.618,3.9642,3.9642,0,0,1,2.279.673,3.0362,3.0362,0,0,1,1.278,2.6c0,2.006-1.263,3.146-3.42,3.146Zm1.167-1.633a1.385,1.385,0,0,0,1.5-1.5,1.56,1.56,0,0,0-.661-1.3,2.1624,2.1624,0,0,0-.838-.316Z"/><path class="a" d="M39.1378,134.496h.082v1.565h-.082c-.686,0-1.031.4-1.031,1.182a1.1927,1.1927,0,0,0,.261.865.6658.6658,0,0,0,.482.1919c.412,0,.659-.233.783-.8649l.22-.99c.247-1.236.893-1.854,1.992-1.854a1.8319,1.8319,0,0,1,1.346.522,2.9911,2.9911,0,0,1,.714,2.171c0,1.689-.879,2.691-2.307,2.691h-.069V138.41h.069c.687,0,1.044-.412,1.044-1.195a1.1931,1.1931,0,0,0-.262-.867.6589.6589,0,0,0-.479-.192c-.4,0-.632.276-.755.867l-.192.865c-.29,1.3729-.908,1.991-2.034,1.991a1.8,1.8,0,0,1-1.359-.535,2.9138,2.9138,0,0,1-.716-2.143C36.8438,135.498,37.6968,134.496,39.1378,134.496Z"/><path class="a" d="M22.8218,23.691a6.4125,6.4125,0,0,1,2.1-.343,5.9675,5.9675,0,0,1,2.034.33,4.649,4.649,0,0,1,3.048,4.56c0,2.4729-1.483,4.217-3.611,4.368V30.848a2.4221,2.4221,0,0,0,2.018-2.61,2.94,2.94,0,0,0-2.018-2.87,4.4378,4.4378,0,0,0-1.455-.235,4.6381,4.6381,0,0,0-1.553.235,2.7729,2.7729,0,0,0-1.908,2.677,2.486,2.486,0,0,0,2.265,2.61V27.894h1.5v4.382h-5.066V30.683l2.128.384V30.83a3.055,3.055,0,0,1-2.349-3.118A4.2109,4.2109,0,0,1,22.8218,23.691Z"/><path class="a" d="M20.1718,34.7h6.674v1.62h-6.674Zm7.622-.067h1.689v1.771h-1.689Z"/><path class="a" d="M21.3928,38.735a3.94,3.94,0,0,1,4.232,0,3.608,3.608,0,0,1,0,5.729,3.9319,3.9319,0,0,1-4.232,0,3.61,3.61,0,0,1,0-5.729Zm.757,4.314a2.6809,2.6809,0,0,0,2.72,0,1.789,1.789,0,0,0,0-2.9,2.6,2.6,0,0,0-2.72,0,1.785,1.785,0,0,0,0,2.9Z"/><path class="a" d="M20.1718,46.876h6.674v1.606l-1.924-.467v.247c1.457.329,2.116,1.057,2.116,2.073,0,1.237-.812,1.841-2.2,1.841h-1.456v-1.66h.906c.879,0,1.236-.3,1.236-.908,0-.728-.618-1.112-1.785-1.112h-3.57Z"/><path class="a" d="M20.1718,53.89h6.674v1.62l-1.785-.412v.233c1.3.4,1.977,1.153,1.977,2.252,0,1.58-.935,2.416-2.72,2.416h-4.147v-1.66h3.886c.989,0,1.5-.427,1.5-1.2781,0-.9469-.729-1.552-1.91-1.552h-3.474Z"/><path class="a" d="M24.5108,67.715h-4.339v-1.62l1.785.384v-.233a2.2131,2.2131,0,0,1-1.977-2.293,1.92,1.92,0,0,1,3.254-1.514,2.7994,2.7994,0,0,1,.7,1.855l.124,1.8h.453c.728,0,1.167-.439,1.167-1.332,0-1.292-1-1.3-1.124-1.3h-.055V61.813h.055c.192,0,2.485.014,2.485,2.995C27.0408,66.726,26.1328,67.715,24.5108,67.715Zm-1.552-1.62-.151-1.414a1.409,1.409,0,0,0-.33-.867.7215.7215,0,0,0-.522-.2.655.655,0,0,0-.5.1919.8837.8837,0,0,0-.218.645,1.72,1.72,0,0,0,1.721,1.6431Z"/><path class="a" d="M25.4718,75.032V71.941h-3.076c-.688,0-1,.2879-1,.728,0,.535.33.7409,1.155.7409h.961V75.032h-.989a2.2542,2.2542,0,0,1-2.54-2.363,2.1,2.1,0,0,1,2.4-2.348h3.089v-1.32h1.375v1.32h1.167l.755,1.62h-1.922v3.091Z"/><path class="a" d="M23.0688,82.828V78.035a2.3865,2.3865,0,0,0-1.112.371,1.555,1.555,0,0,0-.645,1.375,1.3911,1.3911,0,0,0,.9,1.428v1.62a2.867,2.867,0,0,1-2.237-3.007,3.138,3.138,0,0,1,1.263-2.789,3.781,3.781,0,0,1,2.238-.618,3.9739,3.9739,0,0,1,2.281.673,3.0419,3.0419,0,0,1,1.277,2.6c0,2-1.265,3.144-3.42,3.144Zm1.169-1.634a1.384,1.384,0,0,0,1.5-1.5,1.5552,1.5552,0,0,0-.658-1.3,2.16,2.16,0,0,0-.838-.316Z"/><path class="a" d="M20.1718,88.438h9.613v1.7h-8.02v4.066h-1.593Z"/><path class="a" d="M23.0688,101.675V96.882a2.37,2.37,0,0,0-1.112.371,1.5542,1.5542,0,0,0-.645,1.373,1.39,1.39,0,0,0,.9,1.428v1.622a2.869,2.869,0,0,1-2.237-3.008,3.135,3.135,0,0,1,1.263-2.787,3.7817,3.7817,0,0,1,2.238-.618,3.9625,3.9625,0,0,1,2.281.673,3.0391,3.0391,0,0,1,1.277,2.6c0,2.006-1.265,3.146-3.42,3.146Zm1.169-1.634a1.385,1.385,0,0,0,1.5-1.5,1.5567,1.5567,0,0,0-.658-1.3,2.1834,2.1834,0,0,0-.838-.316Z"/><path class="a" d="M25.4718,108.66v-3.089h-3.076c-.688,0-1,.288-1,.728,0,.535.33.741,1.155.741h.961v1.62h-.989a2.2531,2.2531,0,0,1-2.54-2.362,2.1,2.1,0,0,1,2.4-2.349h3.089v-1.318h1.375v1.318h1.167l.755,1.622h-1.922v3.089Z"/><path class="a" d="M25.4718,115.771V112.68h-3.076c-.688,0-1,.288-1,.728,0,.536.33.743,1.155.743h.961v1.62h-.989a2.2542,2.2542,0,0,1-2.54-2.363,2.1,2.1,0,0,1,2.4-2.348h3.089v-1.32h1.375v1.32h1.167l.755,1.62h-1.922v3.091Z"/><path class="a" d="M23.0688,123.567v-4.793a2.37,2.37,0,0,0-1.112.372,1.5522,1.5522,0,0,0-.645,1.373,1.3911,1.3911,0,0,0,.9,1.428v1.62a2.867,2.867,0,0,1-2.237-3.007,3.138,3.138,0,0,1,1.263-2.789,3.781,3.781,0,0,1,2.238-.618,3.9746,3.9746,0,0,1,2.281.673,3.0438,3.0438,0,0,1,1.277,2.6c0,2-1.265,3.144-3.42,3.144Zm1.169-1.634a1.384,1.384,0,0,0,1.5-1.5,1.5551,1.5551,0,0,0-.658-1.3,2.16,2.16,0,0,0-.838-.316Z"/><path class="a" d="M20.1718,125.445h6.674v1.608l-1.924-.468v.249c1.457.329,2.116,1.057,2.116,2.073,0,1.236-.812,1.841-2.2,1.841h-1.456v-1.663h.906c.879,0,1.236-.3,1.236-.906,0-.728-.618-1.114-1.785-1.114h-3.57Z"/><path class="a" d="M24.5108,137.774h-4.339v-1.622l1.785.384v-.232a2.2151,2.2151,0,0,1-1.977-2.294,2.0679,2.0679,0,0,1,.563-1.5,1.8172,1.8172,0,0,1,1.332-.508,1.8365,1.8365,0,0,1,1.359.494,2.7932,2.7932,0,0,1,.7,1.854l.124,1.8h.453c.728,0,1.167-.439,1.167-1.332,0-1.291-1-1.3-1.124-1.3h-.055v-1.649h.055c.192,0,2.485.015,2.485,2.995C27.0408,136.786,26.1328,137.774,24.5108,137.774Zm-1.552-1.622-.151-1.414a1.4,1.4,0,0,0-.33-.865.7171.7171,0,0,0-.522-.206.6547.6547,0,0,0-.5.192.8836.8836,0,0,0-.218.645A1.719,1.719,0,0,0,22.9588,136.152Z"/><path class="a" d="M20.1718,140.035h6.674v1.608l-1.924-.468v.249c1.457.328,2.116,1.057,2.116,2.073,0,1.236-.812,1.84-2.2,1.84h-1.456v-1.661h.906c.879,0,1.236-.3,1.236-.906,0-.728-.618-1.114-1.785-1.114h-3.57Z"/><path class="a" d="M20.1718,147.05h6.674v1.62h-6.674Zm7.622-.069h1.689v1.771h-1.689Z"/><path class="a" d="M23.0688,156.948v-4.793a2.3869,2.3869,0,0,0-1.112.371,1.555,1.555,0,0,0-.645,1.375,1.3911,1.3911,0,0,0,.9,1.428v1.62a2.8681,2.8681,0,0,1-2.237-3.007,3.138,3.138,0,0,1,1.263-2.789,3.781,3.781,0,0,1,2.238-.618,3.9739,3.9739,0,0,1,2.281.673,3.0416,3.0416,0,0,1,1.277,2.6c0,2-1.265,3.144-3.42,3.144Zm1.169-1.634a1.384,1.384,0,0,0,1.5-1.5,1.5528,1.5528,0,0,0-.658-1.3,2.1354,2.1354,0,0,0-.838-.316Z"/><path class="a" d="M6.2208,38.198h.247v1.757h-.151a1.5682,1.5682,0,0,0-1.716,1.759,1.6279,1.6279,0,0,0,.7,1.5239,1.3,1.3,0,0,0,.657.1651,1.0494,1.0494,0,0,0,.551-.124,1.8512,1.8512,0,0,0,.755-1.373l.206-1.112a2.9661,2.9661,0,0,1,1.333-2.171,2.6845,2.6845,0,0,1,1.358-.33,3.03,3.03,0,0,1,1.471.371,3.4181,3.4181,0,0,1,1.51,3.118c0,2.128-1.1531,3.474-3.1,3.474h-.246V43.498h.163a1.5507,1.5507,0,0,0,1.677-1.757,1.631,1.631,0,0,0-.7-1.526,1.305,1.305,0,0,0-.66-.165,1.08,1.08,0,0,0-.549.124,1.8827,1.8827,0,0,0-.726,1.375l-.221,1.1a3.031,3.031,0,0,1-1.359,2.183,2.6411,2.6411,0,0,1-1.346.329,2.8559,2.8559,0,0,1-1.483-.371,3.4,3.4,0,0,1-1.5-3.117C3.0858,39.546,4.2528,38.198,6.2208,38.198Z"/><path class="a" d="M6.2018,53.1079v-4.793a2.382,2.382,0,0,0-1.111.371,1.5542,1.5542,0,0,0-.647,1.375,1.3891,1.3891,0,0,0,.908,1.4281v1.62a2.8689,2.8689,0,0,1-2.24-3.0069,3.1379,3.1379,0,0,1,1.263-2.789,3.79,3.79,0,0,1,2.24-.6181,3.969,3.969,0,0,1,2.279.6731,3.0387,3.0387,0,0,1,1.278,2.6c0,2-1.263,3.144-3.42,3.144Zm1.169-1.634a1.384,1.384,0,0,0,1.5-1.5,1.5559,1.5559,0,0,0-.659-1.3,2.14,2.14,0,0,0-.838-.3161Z"/><path class="a" d="M3.3048,54.985h6.676v1.62l-1.786-.412v.233c1.306.4,1.979,1.155,1.979,2.252,0,1.581-.934,2.418-2.72,2.418H3.3058V59.435h3.89c.989,0,1.5-.426,1.5-1.278,0-.947-.728-1.552-1.909-1.552H3.3118Z"/><path class="a" d="M8.6078,68.483V65.392H5.53c-.687,0-1,.288-1,.728,0,.536.33.743,1.153.743h.96v1.62h-.987a2.2549,2.2549,0,0,1-2.542-2.363,2.1,2.1,0,0,1,2.4-2.348h3.092v-1.32h1.373v1.32h1.167l.755,1.62H9.9788v3.091Z"/><path class="a" d="M5.83,70.263h4.148v1.649H6.0908c-.989,0-1.5.4119-1.5,1.2219,0,.906.726,1.483,1.909,1.483h3.475V76.239H3.2988V74.6169l1.786.412V74.793c-1.306-.384-1.979-1.112-1.979-2.183C3.1128,71.059,4.0468,70.263,5.83,70.263Z"/><path class="a" d="M.8338,78.498h9.147v1.62l-1.786-.412v.2349a2.4,2.4,0,0,1,1.979,2.3891A2.72,2.72,0,0,1,8.98,84.664a4.7131,4.7131,0,0,1-4.671,0,2.72,2.72,0,0,1-1.194-2.334,2.4,2.4,0,0,1,1.979-2.3891V79.706l-1.786.412H.8368Zm4.382,4.752a2.8443,2.8443,0,0,0,2.856,0,1.766,1.766,0,0,0,0-2.773,2.8438,2.8438,0,0,0-2.856,0,1.7659,1.7659,0,0,0,0,2.773Z"/><path class="a" d="M7.6458,92.75h-4.34V91.13l1.786.384v-.233a2.2141,2.2141,0,0,1-1.979-2.294,2.0751,2.0751,0,0,1,.563-1.5,2.0589,2.0589,0,0,1,2.693-.014,2.8,2.8,0,0,1,.7,1.855l.124,1.8h.453c.728,0,1.167-.439,1.167-1.333,0-1.291-1-1.3-1.126-1.3H7.63V86.847h.055c.192,0,2.487.014,2.487,2.9949C10.1728,91.761,9.2658,92.75,7.6458,92.75Zm-1.552-1.62-.153-1.414a1.3931,1.3931,0,0,0-.328-.867.7136.7136,0,0,0-.522-.206.6489.6489,0,0,0-.494.192.8737.8737,0,0,0-.221.645,1.7229,1.7229,0,0,0,1.718,1.649Z"/><path class="a" d="M4.3078,95.176a4.7241,4.7241,0,0,1,4.671,0,2.7388,2.7388,0,0,1,1.194,2.334,2.392,2.392,0,0,1-1.979,2.391v.233l1.786-.412h2.938v1.62H3.3038v-1.62l1.786.412v-.233a2.391,2.391,0,0,1-1.979-2.391A2.739,2.739,0,0,1,4.3078,95.176Zm.908,4.189a2.8443,2.8443,0,0,0,2.856,0,1.7518,1.7518,0,0,0,0-2.76,2.7509,2.7509,0,0,0-2.856,0,1.752,1.752,0,0,0,0,2.76Z"/><path class="a" d="M7.6458,109.194h-4.34V107.57l1.786.384v-.233a2.2141,2.2141,0,0,1-1.979-2.294,2.0751,2.0751,0,0,1,.563-1.5,2.0589,2.0589,0,0,1,2.693-.014,2.7942,2.7942,0,0,1,.7,1.854l.124,1.8h.453c.728,0,1.167-.4411,1.167-1.3331,0-1.2909-1-1.3-1.126-1.3H7.63v-1.649h.055c.192,0,2.487.015,2.487,2.995C10.1728,108.205,9.2658,109.194,7.6458,109.194Zm-1.552-1.62-.153-1.416a1.3927,1.3927,0,0,0-.328-.865.714.714,0,0,0-.522-.206.6489.6489,0,0,0-.494.192.8719.8719,0,0,0-.221.645,1.723,1.723,0,0,0,1.718,1.646Z"/><path class="a" d="M3.3048,115.327h9.614v1.7H4.8958v4.064H3.3018Z"/><path class="a" d="M3.3048,122.793h6.676v1.62H3.3048Zm7.623-.069h1.689v1.771h-1.689Z"/><path class="a" d="M8.6078,132.006v-3.089H5.53c-.687,0-1,.288-1,.728,0,.536.33.741,1.153.741h.96v1.62h-.987a2.2542,2.2542,0,0,1-2.542-2.362,2.1,2.1,0,0,1,2.4-2.349h3.092v-1.318h1.373v1.318h1.167l.755,1.622H9.9788v3.089Z"/><path class="a" d="M8.6078,139.117v-3.091H5.53c-.687,0-1,.288-1,.728,0,.537.33.743,1.153.743h.96v1.62h-.987a2.2539,2.2539,0,0,1-2.542-2.363,2.1,2.1,0,0,1,2.4-2.348h3.092v-1.318h1.373v1.318h1.167l.755,1.62H9.9788v3.091Z"/><path class="a" d="M6.2018,146.914V142.12a2.3638,2.3638,0,0,0-1.111.371,1.5508,1.5508,0,0,0-.647,1.373,1.389,1.389,0,0,0,.908,1.428v1.622a2.8721,2.8721,0,0,1-2.24-3.008,3.138,3.138,0,0,1,1.263-2.789,3.79,3.79,0,0,1,2.24-.616,3.98,3.98,0,0,1,2.279.671,3.0409,3.0409,0,0,1,1.278,2.6c0,2.006-1.263,3.146-3.42,3.146Zm1.169-1.635a1.383,1.383,0,0,0,1.5-1.5,1.5579,1.5579,0,0,0-.659-1.3,2.1655,2.1655,0,0,0-.838-.316Z"/><path class="a" d="M3.3048,148.79h6.676v1.606l-1.924-.4671v.247c1.455.331,2.116,1.059,2.116,2.0751,0,1.236-.81,1.84-2.2,1.84H6.5148V152.43h.9079c.879,0,1.237-.3,1.237-.906,0-.728-.6189-1.114-1.786-1.114H3.3027Z"/><path class="a" d="M7.6458,161.121h-4.34v-1.62l1.786.384v-.233a2.2141,2.2141,0,0,1-1.979-2.294,2.0749,2.0749,0,0,1,.563-1.5,2.059,2.059,0,0,1,2.693-.0141,2.8,2.8,0,0,1,.7,1.8541l.124,1.8h.453c.728,0,1.167-.439,1.167-1.333,0-1.291-1-1.3-1.126-1.3H7.63v-1.648h.055c.192,0,2.487.014,2.487,2.993C10.1728,160.132,9.2658,161.121,7.6458,161.121Zm-1.552-1.62-.153-1.416a1.3927,1.3927,0,0,0-.328-.865.714.714,0,0,0-.522-.206.6489.6489,0,0,0-.494.192.8719.8719,0,0,0-.221.645,1.723,1.723,0,0,0,1.718,1.649Z"/><path class="a" d="M3.3048,163.381h6.676v1.606l-1.924-.467v.247c1.455.33,2.116,1.059,2.116,2.075,0,1.236-.81,1.84-2.2,1.84H6.5148v-1.661h.9079c.879,0,1.237-.3,1.237-.906,0-.728-.6189-1.1141-1.786-1.1141H3.3027Z"/><path class="a" d="M7.6458,175.711h-4.34v-1.625l1.786.384v-.235a2.212,2.212,0,0,1-1.979-2.293,2.0751,2.0751,0,0,1,.563-1.5,2.0589,2.0589,0,0,1,2.693-.014,2.7937,2.7937,0,0,1,.7,1.853l.124,1.8h.453c.728,0,1.167-.4389,1.167-1.332,0-1.2919-1-1.306-1.126-1.306H7.63v-1.648h.055c.192,0,2.487.014,2.487,2.993C10.1728,174.722,9.2658,175.711,7.6458,175.711Zm-1.552-1.62-.153-1.416a1.3927,1.3927,0,0,0-.328-.865.714.714,0,0,0-.522-.206.6489.6489,0,0,0-.494.192.8726.8726,0,0,0-.221.647,1.723,1.723,0,0,0,1.718,1.643Z"/></svg>